<svg width="301" height="106" viewBox="0 0 301 106" fill="none" xmlns="http://www.w3.org/2000/svg">
<rect width="105.195" height="105.195" transform="scale(1.00268)" fill="#FAF5EA"/>
<path d="M63.2391 34.5506C61.9536 34.5506 60.7166 35.0599 59.8071 35.9695L45.776 50.0006C44.4117 51.3649 42.5623 52.1289 40.628 52.1289H30.3017C27.6216 52.1289 25.4509 49.9581 25.4509 47.278V22.4174H37.578V40.6081L54.3499 23.8362C55.2594 22.9267 56.4964 22.4174 57.7819 22.4174H80.0292V34.5445H63.2391V34.5506ZM25.4569 83.0592H37.5841V64.8685H67.902V83.0592H80.0292V72.9391C80.0292 71.6536 79.5198 70.4167 78.6103 69.5071L63.2634 54.1602C62.3538 53.2507 61.1168 52.7413 59.8314 52.7413H46.6613C44.733 52.7413 42.8837 53.5053 41.5133 54.8696L26.8758 69.5071C25.9663 70.4167 25.4569 71.6536 25.4569 72.9391V83.0592Z" fill="#141414"/>
<path d="M147.854 31.4283C147.163 31.4283 146.498 31.7022 146.009 32.1912L138.465 39.7356C137.731 40.4691 136.737 40.8799 135.697 40.8799H130.145C128.703 40.8799 127.536 39.7127 127.536 38.2717V24.9045H134.057V34.6854L143.075 25.6674C143.564 25.1783 144.229 24.9045 144.92 24.9045H156.882V31.4251H147.854V31.4283ZM127.54 57.5107H134.06V47.7298H150.362V57.5107H156.882V52.0692C156.882 51.3781 156.608 50.713 156.119 50.2239L147.867 41.9721C147.378 41.4831 146.713 41.2092 146.022 41.2092H138.941C137.904 41.2092 136.91 41.62 136.173 42.3536L128.302 50.2239C127.813 50.713 127.54 51.3781 127.54 52.0692V57.5107Z" fill="#FAF5EA"/>
<path d="M171.668 25.669L178.289 32.2907C178.778 32.7797 179.052 33.4448 179.052 34.136V57.5091H172.532V34.0349C172.532 32.5939 171.364 31.4267 169.923 31.4267H161.121V24.9061H169.822C170.513 24.9061 171.179 25.18 171.668 25.669ZM190.466 24.9061H180.36C179.639 24.9061 179.055 25.4897 179.055 26.2102V31.4267H190.466V24.9061Z" fill="#FAF5EA"/>
<path d="M218.293 41.9705L226.545 50.2223C227.034 50.7113 227.308 51.3764 227.308 52.0676V57.5091H220.787V50.3364C220.787 48.8954 219.62 47.7282 218.179 47.7282H203.834C202.393 47.7282 201.225 48.8954 201.225 50.3364V57.5091H194.705V52.0676C194.705 51.3764 194.979 50.7113 195.468 50.2223L203.72 41.9705C204.209 41.4814 204.874 41.2076 205.565 41.2076H216.445C217.136 41.2076 217.801 41.4814 218.29 41.9705H218.293ZM205.571 24.9061C204.88 24.9061 204.215 25.18 203.726 25.669L195.474 33.9208C194.985 34.4099 194.711 35.075 194.711 35.7661V42.8377H201.232V34.0349C201.232 32.5939 202.399 31.4267 203.84 31.4267H218.186C219.627 31.4267 220.794 32.5939 220.794 34.0349V42.8377H227.314V35.7661C227.314 35.075 227.04 34.4099 226.551 33.9208L218.3 25.669C217.811 25.18 217.145 24.9061 216.454 24.9061H205.571Z" fill="#FAF5EA"/>
<path d="M255.138 25.669L263.39 33.9208C263.879 34.4099 264.152 35.075 264.152 35.7661V57.5091H257.632V34.0349C257.632 32.5939 256.465 31.4267 255.024 31.4267H239.7L245.458 25.669C245.947 25.18 246.612 24.9061 247.303 24.9061H253.292C253.984 24.9061 254.649 25.18 255.138 25.669ZM231.553 24.9061V57.5091H238.073V24.9061H231.553Z" fill="#FAF5EA"/>
<path d="M291.979 41.9705L300.231 50.2223C300.72 50.7113 300.994 51.3764 300.994 52.0676V57.5091H294.473V50.3364C294.473 48.8954 293.306 47.7282 291.865 47.7282H277.52C276.079 47.7282 274.911 48.8954 274.911 50.3364V57.5091H268.391V52.0676C268.391 51.3764 268.665 50.7113 269.154 50.2223L277.406 41.9705C277.895 41.4814 278.56 41.2076 279.251 41.2076H290.13C290.822 41.2076 291.487 41.4814 291.976 41.9705H291.979ZM279.257 24.9061C278.566 24.9061 277.901 25.18 277.412 25.669L269.16 33.9208C268.671 34.4099 268.397 35.075 268.397 35.7661V42.8377H274.918V34.0349C274.918 32.5939 276.085 31.4267 277.526 31.4267H291.871C293.313 31.4267 294.48 32.5939 294.48 34.0349V42.8377H301V35.7661C301 35.075 300.726 34.4099 300.237 33.9208L291.986 25.669C291.497 25.18 290.831 24.9061 290.14 24.9061H279.257Z" fill="#FAF5EA"/>
<path d="M128.695 77.5648V69.6787H137.342V71.1125H130.459V72.8552H136.702V74.289H130.459V76.1309H137.342V77.5648H128.695ZM138.55 77.5648V69.6787H140.028L143.679 72.2375H143.734L147.385 69.6787H148.863V77.5648H147.098V71.8846L144.594 73.5611V77.5648H142.83V73.5611L140.315 71.8846V77.5648H138.55ZM150.409 77.5648V69.7008L157.049 69.6787C157.924 69.6787 158.571 69.8625 158.99 70.2302C159.416 70.5905 159.63 71.1346 159.63 71.8625C159.63 72.5905 159.387 73.1236 158.902 73.4618C159.225 73.6383 159.464 73.8736 159.619 74.1677C159.773 74.4545 159.85 74.8258 159.85 75.2817C159.85 76.0243 159.637 76.5905 159.21 76.9802C158.791 77.3626 158.144 77.5538 157.269 77.5538L150.409 77.5648ZM156.839 71.0905H152.174V72.8552H156.839C157.508 72.8552 157.843 72.5537 157.843 71.9508C157.843 71.3772 157.508 71.0905 156.839 71.0905ZM157.06 74.267H152.174V76.142H157.06C157.729 76.142 158.063 75.8258 158.063 75.1934C158.063 74.5758 157.729 74.267 157.06 74.267ZM161.061 77.5648V69.6787H167.668C168.484 69.6787 169.117 69.8846 169.565 70.2964C170.021 70.7081 170.249 71.3331 170.249 72.1714C170.249 72.8846 170.084 73.4434 169.753 73.8478C169.422 74.2523 168.951 74.5059 168.341 74.6089L170.161 77.5648H168.153L166.466 74.664H162.826V77.5648H161.061ZM167.459 71.1125H162.826V73.2192L167.459 73.2302C167.782 73.2302 168.028 73.1493 168.197 72.9875C168.374 72.8258 168.462 72.5537 168.462 72.1714C168.462 71.7817 168.374 71.5096 168.197 71.3552C168.028 71.1934 167.782 71.1125 167.459 71.1125ZM170.912 77.5648L174.464 69.6787H177.188L180.739 77.5648H178.82L178.07 75.8993H173.581L172.831 77.5648H170.912ZM174.221 74.4655H177.431L175.897 71.0574H175.754L174.221 74.4655ZM185.467 77.6199C184.011 77.6199 182.897 77.2854 182.125 76.6162C181.353 75.9398 180.967 74.9398 180.967 73.6162C180.967 72.3 181.353 71.3037 182.125 70.6272C182.897 69.9508 184.011 69.6162 185.467 69.6236L189.437 69.6456V71.0574H185.588C184.632 71.0574 183.923 71.2596 183.459 71.664C182.996 72.0684 182.764 72.7192 182.764 73.6162C182.764 74.5133 182.996 75.1677 183.459 75.5795C183.923 75.9839 184.632 76.1861 185.588 76.1861H189.548V77.6199H185.467ZM190.649 77.5648V69.6787H199.296V71.1125H192.414V72.8552H198.657V74.289H192.414V76.1309H199.296V77.5648H190.649ZM204.085 73.6714V69.6787H213.791V73.6714H212.004V71.1125H209.6V77.5648H207.835V71.1125H205.872V73.6714H204.085ZM215.056 77.5648V69.6787H216.821V72.9103H222.38V69.6787H224.145V77.5648H222.38V74.3442H216.821V77.5648H215.056ZM225.687 77.5648V69.6787H234.334V71.1125H227.452V72.8552H233.695V74.289H227.452V76.1309H234.334V77.5648H225.687ZM239.399 77.5648V69.6787H247.825V71.1125H241.163V73.2964H246.965V74.7302H241.163V77.5648H239.399ZM252.226 77.6199C251.425 77.6199 250.792 77.517 250.329 77.3111C249.866 77.0979 249.535 76.778 249.337 76.3515C249.138 75.9251 249.039 75.3883 249.039 74.7412V69.6787H250.804V74.7412C250.804 75.3001 250.932 75.6824 251.19 75.8883C251.454 76.0868 251.899 76.1861 252.524 76.1861H254.653C255.278 76.1861 255.719 76.0868 255.976 75.8883C256.241 75.6824 256.373 75.3001 256.373 74.7412V69.6787H258.138V74.7412C258.138 75.3883 258.039 75.9251 257.84 76.3515C257.642 76.778 257.311 77.0979 256.848 77.3111C256.384 77.517 255.752 77.6199 254.951 77.6199H252.226ZM259.405 73.6714V69.6787H269.111V73.6714H267.324V71.1125H264.92V77.5648H263.155V71.1125H261.192V73.6714H259.405ZM273.564 77.6199C272.762 77.6199 272.13 77.517 271.667 77.3111C271.203 77.0979 270.872 76.778 270.674 76.3515C270.475 75.9251 270.376 75.3883 270.376 74.7412V69.6787H272.141V74.7412C272.141 75.3001 272.27 75.6824 272.527 75.8883C272.792 76.0868 273.236 76.1861 273.861 76.1861H275.99C276.615 76.1861 277.056 76.0868 277.314 75.8883C277.578 75.6824 277.711 75.3001 277.711 74.7412V69.6787H279.475V74.7412C279.475 75.3883 279.376 75.9251 279.178 76.3515C278.979 76.778 278.648 77.0979 278.185 77.3111C277.722 77.517 277.089 77.6199 276.288 77.6199H273.564ZM281.018 77.5648V69.6787H287.625C288.441 69.6787 289.073 69.8846 289.522 70.2964C289.977 70.7081 290.205 71.3331 290.205 72.1714C290.205 72.8846 290.04 73.4434 289.709 73.8478C289.378 74.2523 288.908 74.5059 288.297 74.6089L290.117 77.5648H288.11L286.422 74.664H282.783V77.5648H281.018ZM287.415 71.1125H282.783V73.2192L287.415 73.2302C287.738 73.2302 287.985 73.1493 288.154 72.9875C288.33 72.8258 288.419 72.5537 288.419 72.1714C288.419 71.7817 288.33 71.5096 288.154 71.3552C287.985 71.1934 287.738 71.1125 287.415 71.1125ZM291.53 77.5648V69.6787H300.177V71.1125H293.295V72.8552H299.538V74.289H293.295V76.1309H300.177V77.5648H291.53Z" fill="#FAF5EA"/>
</svg>
