<svg xmlns="http://www.w3.org/2000/svg" viewBox="0 0 24 24" width="24" height="24" fill="#FFFFFF"><path d="M12 0C5.373 0 0 5.373 0 12s5.373 12 12 12 12-5.373 12-12S18.627 0 12 0zm9.567 10.5h-3.89c-.16-2.745-.87-5.232-2.015-7.16A10.04 10.04 0 0 1 21.567 10.5zM13.5 1.63c1.578 1.652 2.718 4.172 3.058 7.37H13.5V1.63zm0 8.87h3.747c-.16 2.927-.94 5.58-2.157 7.538-.5.1-1.04.17-1.59.2V12zm0 9.37v-1.13c.51-.03 1.01-.09 1.49-.19 1.2-1.94 1.97-4.57 2.14-7.45h3.803A10.042 10.042 0 0 1 13.5 21.37zm-3 0A10.042 10.042 0 0 1 3.067 13.5h3.803c.17 2.88.94 5.51 2.14 7.45.48.1.98.16 1.49.19v1.13zm0-2.37c-.55-.03-1.09-.1-1.59-.2-1.217-1.958-1.997-4.611-2.157-7.538H10.5V19zm0-8.87H7.442c.34-3.198 1.48-5.718 3.058-7.37V10.5zm0-8.87v1.13c-.51.03-1.01.09-1.49.19-1.2 1.94-1.97 4.57-2.14 7.45H3.067A10.042 10.042 0 0 1 10.5 1.63zM5.662 3.34C4.517 5.268 3.807 7.755 3.647 10.5H1.433a10.04 10.04 0 0 1 4.229-7.16zM1.433 13.5h2.214c.16 2.745.87 5.232 2.015 7.16A10.04 10.04 0 0 1 1.433 13.5zm16.905 7.16c1.145-1.928 1.855-4.415 2.015-7.16h2.214a10.04 10.04 0 0 1-4.229 7.16z"/></svg>