<svg width="1968" height="396" viewBox="0 0 1968 396" fill="none" xmlns="http://www.w3.org/2000/svg">
<rect width="1968" height="395.23" rx="18.8903" fill="black"/>
<rect width="80.919" height="80.919" transform="translate(143.945 137.574)" fill="#FAF5EA"/>
<path d="M192.459 164.08C191.473 164.08 190.524 164.471 189.826 165.169L179.062 175.933C178.015 176.98 176.596 177.566 175.112 177.566H167.19C165.134 177.566 163.469 175.901 163.469 173.844V154.772H172.772V168.727L185.639 155.86C186.337 155.163 187.286 154.772 188.272 154.772H205.34V164.076H192.459V164.08ZM163.473 201.295H172.777V187.339H196.036V201.295H205.34V193.531C205.34 192.545 204.949 191.596 204.251 190.898L192.478 179.124C191.78 178.426 190.831 178.036 189.845 178.036H179.741C178.262 178.036 176.843 178.622 175.791 179.669L164.562 190.898C163.864 191.596 163.473 192.545 163.473 193.531V201.295Z" fill="#141414"/>
<path d="M153.146 234.523C152.821 234.523 152.508 234.652 152.277 234.883L148.726 238.434C148.381 238.779 147.913 238.972 147.423 238.972H144.81C144.131 238.972 143.582 238.423 143.582 237.745V231.453H146.651V236.057L150.896 231.812C151.126 231.582 151.439 231.453 151.765 231.453H157.396V234.522H153.146V234.523ZM143.584 246.801H146.653V242.197H154.326V246.801H157.396V244.239C157.396 243.914 157.267 243.601 157.036 243.371L153.152 239.487C152.922 239.256 152.609 239.127 152.284 239.127H148.95C148.462 239.127 147.994 239.321 147.647 239.666L143.943 243.371C143.712 243.601 143.584 243.914 143.584 244.239V246.801Z" fill="#FAF5EA"/>
<path d="M164.355 231.813L167.472 234.929C167.702 235.16 167.831 235.473 167.831 235.798V246.8H164.762V235.75C164.762 235.072 164.212 234.523 163.534 234.523H159.391V231.453H163.487C163.812 231.453 164.125 231.582 164.355 231.813ZM173.204 231.453H168.447C168.107 231.453 167.833 231.728 167.833 232.067V234.523H173.204V231.453Z" fill="#FAF5EA"/>
<path d="M186.302 239.486L190.187 243.37C190.417 243.6 190.546 243.913 190.546 244.239V246.8H187.476V243.424C187.476 242.745 186.927 242.196 186.249 242.196H179.496C178.818 242.196 178.268 242.745 178.268 243.424V246.8H175.199V244.239C175.199 243.913 175.328 243.6 175.558 243.37L179.442 239.486C179.673 239.256 179.986 239.127 180.311 239.127H185.432C185.758 239.127 186.071 239.256 186.301 239.486H186.302ZM180.314 231.453C179.989 231.453 179.676 231.582 179.445 231.813L175.561 235.697C175.331 235.927 175.202 236.24 175.202 236.565V239.894H178.271V235.75C178.271 235.072 178.821 234.523 179.499 234.523H186.252C186.93 234.523 187.479 235.072 187.479 235.75V239.894H190.549V236.565C190.549 236.24 190.42 235.927 190.19 235.697L186.305 231.813C186.075 231.582 185.762 231.453 185.437 231.453H180.314Z" fill="#FAF5EA"/>
<path d="M203.646 231.813L207.53 235.697C207.76 235.927 207.889 236.24 207.889 236.565V246.8H204.82V235.75C204.82 235.072 204.27 234.523 203.592 234.523H196.379L199.089 231.813C199.319 231.582 199.632 231.453 199.958 231.453H202.777C203.102 231.453 203.415 231.582 203.646 231.813ZM192.544 231.453V246.8H195.613V231.453H192.544Z" fill="#FAF5EA"/>
<path d="M220.987 239.486L224.871 243.37C225.102 243.6 225.231 243.913 225.231 244.239V246.8H222.161V243.424C222.161 242.745 221.612 242.196 220.933 242.196H214.181C213.503 242.196 212.953 242.745 212.953 243.424V246.8H209.884V244.239C209.884 243.913 210.013 243.6 210.243 243.37L214.127 239.486C214.357 239.256 214.671 239.127 214.996 239.127H220.117C220.442 239.127 220.755 239.256 220.986 239.486H220.987ZM214.999 231.453C214.674 231.453 214.361 231.582 214.13 231.813L210.246 235.697C210.016 235.927 209.887 236.24 209.887 236.565V239.894H212.956V235.75C212.956 235.072 213.506 234.523 214.184 234.523H220.937C221.615 234.523 222.164 235.072 222.164 235.75V239.894H225.234V236.565C225.234 236.24 225.105 235.927 224.874 235.697L220.99 231.813C220.76 231.582 220.447 231.453 220.122 231.453H214.999Z" fill="#FAF5EA"/>
<path d="M144.126 255.588V251.876H148.196V252.551H144.956V253.372H147.895V254.046H144.956V254.913H148.196V255.588H144.126ZM148.765 255.588V251.876H149.461L151.179 253.081H151.205L152.923 251.876H153.619V255.588H152.788V252.915L151.61 253.704V255.588H150.779V253.704L149.596 252.915V255.588H148.765ZM154.347 255.588V251.887L157.472 251.876C157.884 251.876 158.189 251.963 158.386 252.136C158.587 252.305 158.687 252.562 158.687 252.904C158.687 253.247 158.573 253.498 158.345 253.657C158.497 253.74 158.609 253.851 158.682 253.989C158.755 254.124 158.791 254.299 158.791 254.514C158.791 254.863 158.691 255.13 158.49 255.313C158.293 255.493 157.988 255.583 157.576 255.583L154.347 255.588ZM157.374 252.541H155.178V253.372H157.374C157.689 253.372 157.846 253.23 157.846 252.946C157.846 252.676 157.689 252.541 157.374 252.541ZM157.478 254.036H155.178V254.919H157.478C157.793 254.919 157.95 254.77 157.95 254.472C157.95 254.181 157.793 254.036 157.478 254.036ZM159.361 255.588V251.876H162.471C162.855 251.876 163.153 251.973 163.364 252.167C163.579 252.361 163.686 252.655 163.686 253.05C163.686 253.385 163.608 253.648 163.452 253.839C163.297 254.029 163.075 254.149 162.788 254.197L163.644 255.588H162.699L161.905 254.223H160.192V255.588H159.361ZM162.372 252.551H160.192V253.543L162.372 253.548C162.525 253.548 162.641 253.51 162.72 253.434C162.803 253.358 162.845 253.23 162.845 253.05C162.845 252.866 162.803 252.738 162.72 252.665C162.641 252.589 162.525 252.551 162.372 252.551ZM163.998 255.588L165.67 251.876H166.952L168.624 255.588H167.721L167.367 254.804H165.254L164.901 255.588H163.998ZM165.556 254.13H167.066L166.345 252.525H166.277L165.556 254.13ZM170.849 255.614C170.164 255.614 169.639 255.457 169.276 255.142C168.913 254.823 168.731 254.353 168.731 253.73C168.731 253.11 168.913 252.641 169.276 252.323C169.639 252.004 170.164 251.847 170.849 251.85L172.718 251.861V252.525H170.906C170.456 252.525 170.122 252.62 169.904 252.811C169.686 253.001 169.577 253.307 169.577 253.73C169.577 254.152 169.686 254.46 169.904 254.654C170.122 254.844 170.456 254.939 170.906 254.939H172.77V255.614H170.849ZM173.289 255.588V251.876H177.359V252.551H174.119V253.372H177.058V254.046H174.119V254.913H177.359V255.588H173.289ZM179.613 253.756V251.876H184.182V253.756H183.341V252.551H182.209V255.588H181.378V252.551H180.454V253.756H179.613ZM184.777 255.588V251.876H185.608V253.397H188.225V251.876H189.055V255.588H188.225V254.072H185.608V255.588H184.777ZM189.781 255.588V251.876H193.852V252.551H190.612V253.372H193.551V254.046H190.612V254.913H193.852V255.588H189.781ZM196.236 255.588V251.876H200.202V252.551H197.066V253.579H199.797V254.254H197.066V255.588H196.236ZM202.274 255.614C201.896 255.614 201.599 255.566 201.381 255.469C201.163 255.369 201.007 255.218 200.913 255.017C200.82 254.817 200.773 254.564 200.773 254.259V251.876H201.604V254.259C201.604 254.522 201.664 254.702 201.786 254.799C201.91 254.893 202.12 254.939 202.414 254.939H203.416C203.71 254.939 203.918 254.893 204.039 254.799C204.163 254.702 204.226 254.522 204.226 254.259V251.876H205.056V254.259C205.056 254.564 205.01 254.817 204.916 255.017C204.823 255.218 204.667 255.369 204.449 255.469C204.231 255.566 203.933 255.614 203.556 255.614H202.274ZM205.653 253.756V251.876H210.221V253.756H209.38V252.551H208.248V255.588H207.418V252.551H206.494V253.756H205.653ZM212.317 255.614C211.94 255.614 211.642 255.566 211.424 255.469C211.206 255.369 211.051 255.218 210.957 255.017C210.864 254.817 210.817 254.564 210.817 254.259V251.876H211.648V254.259C211.648 254.522 211.708 254.702 211.829 254.799C211.954 254.893 212.163 254.939 212.458 254.939H213.46C213.754 254.939 213.961 254.893 214.083 254.799C214.207 254.702 214.269 254.522 214.269 254.259V251.876H215.1V254.259C215.1 254.564 215.053 254.817 214.96 255.017C214.866 255.218 214.711 255.369 214.493 255.469C214.275 255.566 213.977 255.614 213.6 255.614H212.317ZM215.826 255.588V251.876H218.936C219.32 251.876 219.618 251.973 219.829 252.167C220.044 252.361 220.151 252.655 220.151 253.05C220.151 253.385 220.073 253.648 219.917 253.839C219.761 254.029 219.54 254.149 219.253 254.197L220.109 255.588H219.164L218.37 254.223H216.657V255.588H215.826ZM218.837 252.551H216.657V253.543L218.837 253.548C218.99 253.548 219.106 253.51 219.185 253.434C219.268 253.358 219.31 253.23 219.31 253.05C219.31 252.866 219.268 252.738 219.185 252.665C219.106 252.589 218.99 252.551 218.837 252.551ZM220.774 255.588V251.876H224.845V252.551H221.605V253.372H224.544V254.046H221.605V254.913H224.845V255.588H220.774Z" fill="#FAF5EA"/>
<rect width="94.6752" height="94.6752" transform="translate(360.406 150.277)" fill="#FAF5EA"/>
<path d="M417.168 181.29C416.015 181.29 414.904 181.747 414.088 182.563L401.494 195.157C400.269 196.382 398.609 197.068 396.873 197.068H387.604C385.198 197.068 383.25 195.119 383.25 192.714V170.399H394.135V186.727L409.19 171.673C410.006 170.856 411.116 170.399 412.27 170.399H432.239V181.284H417.168V181.29ZM383.255 224.831H394.141V208.503H421.354V224.831H432.239V215.747C432.239 214.593 431.782 213.483 430.966 212.666L417.19 198.891C416.374 198.075 415.264 197.618 414.11 197.618H402.288C400.558 197.618 398.898 198.303 397.668 199.528L384.529 212.666C383.713 213.483 383.255 214.593 383.255 215.747V224.831Z" fill="#141414"/>
<path d="M493.269 178.487C492.648 178.487 492.051 178.733 491.612 179.172L484.841 185.944C484.182 186.602 483.29 186.971 482.356 186.971H477.372C476.079 186.971 475.031 185.923 475.031 184.63V172.631H480.884V181.411L488.979 173.316C489.418 172.877 490.015 172.631 490.635 172.631H501.372V178.484H493.269V178.487ZM475.034 201.898H480.887V193.119H495.519V201.898H501.372V197.014C501.372 196.394 501.126 195.797 500.687 195.358L493.28 187.951C492.841 187.512 492.244 187.266 491.624 187.266H485.268C484.337 187.266 483.445 187.635 482.783 188.294L475.719 195.358C475.28 195.797 475.034 196.394 475.034 197.014V201.898Z" fill="#FAF5EA"/>
<path d="M514.643 173.318L520.587 179.261C521.026 179.7 521.272 180.297 521.272 180.918V201.897H515.419V180.827C515.419 179.533 514.371 178.486 513.078 178.486H505.176V172.633H512.987C513.607 172.633 514.204 172.879 514.643 173.318ZM531.517 172.633H522.445C521.798 172.633 521.275 173.157 521.275 173.803V178.486H531.517V172.633Z" fill="#FAF5EA"/>
<path d="M556.494 187.95L563.901 195.356C564.34 195.795 564.586 196.392 564.586 197.013V201.897H558.733V195.459C558.733 194.165 557.685 193.118 556.392 193.118H543.515C542.222 193.118 541.174 194.165 541.174 195.459V201.897H535.321V197.013C535.321 196.392 535.567 195.795 536.006 195.356L543.413 187.95C543.852 187.511 544.449 187.265 545.069 187.265H554.835C555.455 187.265 556.052 187.511 556.491 187.95H556.494ZM545.075 172.633C544.455 172.633 543.858 172.879 543.419 173.318L536.012 180.724C535.573 181.163 535.327 181.76 535.327 182.381V188.728H541.18V180.827C541.18 179.533 542.228 178.486 543.521 178.486H556.397C557.691 178.486 558.739 179.533 558.739 180.827V188.728H564.591V182.381C564.591 181.76 564.346 181.163 563.907 180.724L556.5 173.318C556.061 172.879 555.464 172.633 554.844 172.633H545.075Z" fill="#FAF5EA"/>
<path d="M589.566 173.318L596.972 180.724C597.411 181.163 597.657 181.76 597.657 182.381V201.897H591.804V180.827C591.804 179.533 590.757 178.486 589.463 178.486H575.709L580.877 173.318C581.316 172.879 581.913 172.633 582.533 172.633H587.909C588.53 172.633 589.127 172.879 589.566 173.318ZM568.396 172.633V201.897H574.249V172.633H568.396Z" fill="#FAF5EA"/>
<path d="M622.634 187.95L630.041 195.356C630.48 195.795 630.726 196.392 630.726 197.013V201.897H624.873V195.459C624.873 194.165 623.825 193.118 622.532 193.118H609.655C608.362 193.118 607.314 194.165 607.314 195.459V201.897H601.461V197.013C601.461 196.392 601.707 195.795 602.146 195.356L609.553 187.95C609.992 187.511 610.589 187.265 611.209 187.265H620.975C621.595 187.265 622.192 187.511 622.631 187.95H622.634ZM611.215 172.633C610.595 172.633 609.998 172.879 609.559 173.318L602.152 180.724C601.713 181.163 601.467 181.76 601.467 182.381V188.728H607.32V180.827C607.32 179.533 608.368 178.486 609.661 178.486H622.538C623.831 178.486 624.879 179.533 624.879 180.827V188.728H630.732V182.381C630.732 181.76 630.486 181.163 630.047 180.724L622.64 173.318C622.201 172.879 621.604 172.633 620.984 172.633H611.215Z" fill="#FAF5EA"/>
<path d="M476.073 220.249V213.17H483.834V214.457H477.657V216.021H483.26V217.308H477.657V218.962H483.834V220.249H476.073ZM484.919 220.249V213.17H486.245L489.522 215.467H489.572L492.849 213.17H494.175V220.249H492.591V215.15L490.344 216.655V220.249H488.76V216.655L486.503 215.15V220.249H484.919ZM495.563 220.249V213.19L501.523 213.17C502.308 213.17 502.889 213.335 503.265 213.665C503.648 213.988 503.84 214.477 503.84 215.13C503.84 215.784 503.622 216.262 503.186 216.566C503.477 216.724 503.691 216.935 503.83 217.199C503.968 217.457 504.038 217.79 504.038 218.199C504.038 218.866 503.846 219.374 503.463 219.724C503.087 220.067 502.506 220.239 501.721 220.239L495.563 220.249ZM501.335 214.437H497.147V216.021H501.335C501.935 216.021 502.236 215.751 502.236 215.209C502.236 214.695 501.935 214.437 501.335 214.437ZM501.533 217.288H497.147V218.971H501.533C502.133 218.971 502.434 218.688 502.434 218.12C502.434 217.566 502.133 217.288 501.533 217.288ZM505.125 220.249V213.17H511.055C511.787 213.17 512.355 213.355 512.758 213.724C513.167 214.094 513.371 214.655 513.371 215.407C513.371 216.048 513.223 216.549 512.926 216.912C512.629 217.275 512.207 217.503 511.659 217.595L513.292 220.249H511.49L509.976 217.645H506.709V220.249H505.125ZM510.867 214.457H506.709V216.348L510.867 216.358C511.157 216.358 511.378 216.285 511.53 216.14C511.688 215.995 511.768 215.751 511.768 215.407C511.768 215.058 511.688 214.813 511.53 214.675C511.378 214.53 511.157 214.457 510.867 214.457ZM513.967 220.249L517.155 213.17H519.6L522.788 220.249H521.065L520.392 218.754H516.363L515.689 220.249H513.967ZM516.937 217.467H519.818L518.442 214.408H518.313L516.937 217.467ZM527.031 220.298C525.724 220.298 524.724 219.998 524.031 219.397C523.338 218.79 522.992 217.892 522.992 216.704C522.992 215.523 523.338 214.629 524.031 214.021C524.724 213.414 525.724 213.114 527.031 213.121L530.595 213.14V214.408H527.14C526.282 214.408 525.645 214.589 525.229 214.952C524.813 215.315 524.605 215.899 524.605 216.704C524.605 217.51 524.813 218.097 525.229 218.467C525.645 218.83 526.282 219.011 527.14 219.011H530.694V220.298H527.031ZM531.683 220.249V213.17H539.444V214.457H533.267V216.021H538.87V217.308H533.267V218.962H539.444V220.249H531.683ZM543.743 216.754V213.17H552.455V216.754H550.851V214.457H548.693V220.249H547.109V214.457H545.346V216.754H543.743ZM553.59 220.249V213.17H555.174V216.071H560.164V213.17H561.748V220.249H560.164V217.358H555.174V220.249H553.59ZM563.133 220.249V213.17H570.894V214.457H564.717V216.021H570.32V217.308H564.717V218.962H570.894V220.249H563.133ZM575.44 220.249V213.17H583.004V214.457H577.024V216.417H582.231V217.704H577.024V220.249H575.44ZM586.954 220.298C586.234 220.298 585.667 220.206 585.251 220.021C584.835 219.829 584.538 219.542 584.36 219.16C584.182 218.777 584.093 218.295 584.093 217.714V213.17H585.677V217.714C585.677 218.216 585.792 218.559 586.023 218.744C586.261 218.922 586.66 219.011 587.221 219.011H589.132C589.693 219.011 590.089 218.922 590.32 218.744C590.557 218.559 590.676 218.216 590.676 217.714V213.17H592.26V217.714C592.26 218.295 592.171 218.777 591.993 219.16C591.815 219.542 591.518 219.829 591.102 220.021C590.686 220.206 590.119 220.298 589.399 220.298H586.954ZM593.397 216.754V213.17H602.109V216.754H600.505V214.457H598.347V220.249H596.763V214.457H595.001V216.754H593.397ZM606.106 220.298C605.387 220.298 604.819 220.206 604.403 220.021C603.988 219.829 603.691 219.542 603.512 219.16C603.334 218.777 603.245 218.295 603.245 217.714V213.17H604.829V217.714C604.829 218.216 604.945 218.559 605.176 218.744C605.413 218.922 605.812 219.011 606.373 219.011H608.284C608.845 219.011 609.241 218.922 609.472 218.744C609.71 218.559 609.829 218.216 609.829 217.714V213.17H611.413V217.714C611.413 218.295 611.323 218.777 611.145 219.16C610.967 219.542 610.67 219.829 610.254 220.021C609.838 220.206 609.271 220.298 608.551 220.298H606.106ZM612.797 220.249V213.17H618.727C619.46 213.17 620.027 213.355 620.43 213.724C620.839 214.094 621.044 214.655 621.044 215.407C621.044 216.048 620.895 216.549 620.598 216.912C620.301 217.275 619.879 217.503 619.331 217.595L620.964 220.249H619.163L617.648 217.645H614.381V220.249H612.797ZM618.539 214.457H614.381V216.348L618.539 216.358C618.829 216.358 619.05 216.285 619.202 216.14C619.361 215.995 619.44 215.751 619.44 215.407C619.44 215.058 619.361 214.813 619.202 214.675C619.05 214.53 618.829 214.457 618.539 214.457ZM622.233 220.249V213.17H629.994V214.457H623.817V216.021H629.42V217.308H623.817V218.962H629.994V220.249H622.233Z" fill="#FAF5EA"/>
<path d="M781.855 189.925C781.311 189.925 780.788 190.141 780.404 190.525L774.472 196.457C773.895 197.034 773.113 197.357 772.295 197.357H767.93C766.797 197.357 765.879 196.439 765.879 195.306V184.796H771.006V192.486L778.097 185.396C778.481 185.011 779.004 184.796 779.548 184.796H788.953V189.923H781.855V189.925ZM765.881 210.434H771.008V202.743H783.826V210.434H788.953V206.155C788.953 205.612 788.738 205.089 788.353 204.704L781.865 198.216C781.48 197.831 780.957 197.616 780.414 197.616H774.846C774.031 197.616 773.249 197.939 772.67 198.516L766.481 204.704C766.097 205.089 765.881 205.612 765.881 206.155V210.434Z" fill="#FAF5EA"/>
<path d="M800.579 185.397L805.785 190.604C806.17 190.988 806.385 191.511 806.385 192.054V210.432H801.258V191.975C801.258 190.842 800.34 189.924 799.207 189.924H792.286V184.797H799.128C799.671 184.797 800.194 185.013 800.579 185.397ZM815.36 184.797H807.413C806.846 184.797 806.387 185.256 806.387 185.823V189.924H815.36V184.797Z" fill="#FAF5EA"/>
<path d="M837.239 198.215L843.728 204.703C844.112 205.087 844.327 205.61 844.327 206.154V210.432H839.2V204.793C839.2 203.659 838.283 202.742 837.15 202.742H825.87C824.737 202.742 823.819 203.659 823.819 204.793V210.432H818.692V206.154C818.692 205.61 818.908 205.087 819.292 204.703L825.78 198.215C826.165 197.83 826.688 197.615 827.231 197.615H835.786C836.329 197.615 836.852 197.83 837.237 198.215H837.239ZM827.236 184.797C826.693 184.797 826.17 185.013 825.786 185.397L819.297 191.885C818.913 192.27 818.697 192.793 818.697 193.336V198.896H823.824V191.975C823.824 190.842 824.742 189.924 825.875 189.924H837.155C838.288 189.924 839.205 190.842 839.205 191.975V198.896H844.332V193.336C844.332 192.793 844.117 192.27 843.733 191.885L837.244 185.397C836.86 185.013 836.337 184.797 835.793 184.797H827.236Z" fill="#FAF5EA"/>
<path d="M866.209 185.397L872.698 191.885C873.082 192.27 873.298 192.793 873.298 193.336V210.432H868.171V191.975C868.171 190.842 867.253 189.924 866.12 189.924H854.071L858.598 185.397C858.983 185.013 859.506 184.797 860.049 184.797H864.759C865.302 184.797 865.825 185.013 866.209 185.397ZM847.665 184.797V210.432H852.792V184.797H847.665Z" fill="#FAF5EA"/>
<path d="M895.177 198.215L901.665 204.703C902.05 205.087 902.265 205.61 902.265 206.154V210.432H897.138V204.793C897.138 203.659 896.22 202.742 895.087 202.742H883.808C882.675 202.742 881.757 203.659 881.757 204.793V210.432H876.63V206.154C876.63 205.61 876.845 205.087 877.23 204.703L883.718 198.215C884.103 197.83 884.626 197.615 885.169 197.615H893.724C894.267 197.615 894.79 197.83 895.175 198.215H895.177ZM885.174 184.797C884.631 184.797 884.108 185.013 883.723 185.397L877.235 191.885C876.851 192.27 876.635 192.793 876.635 193.336V198.896H881.762V191.975C881.762 190.842 882.68 189.924 883.813 189.924H895.093C896.226 189.924 897.143 190.842 897.143 191.975V198.896H902.27V193.336C902.27 192.793 902.055 192.27 901.67 191.885L895.182 185.397C894.798 185.013 894.275 184.797 893.731 184.797H885.174Z" fill="#FAF5EA"/>
<rect width="97.912" height="97.912" transform="translate(928.891 148.659)" fill="#FAF5EA"/>
<path d="M987.594 180.732C986.4 180.732 985.252 181.205 984.408 182.049L971.383 195.074C970.117 196.34 968.4 197.049 966.604 197.049H957.019C954.531 197.049 952.516 195.034 952.516 192.546V169.469H963.773V186.355L979.342 170.786C980.186 169.942 981.335 169.469 982.528 169.469H1003.18V180.726H987.594V180.732ZM952.521 225.761H963.779V208.875H991.922V225.761H1003.18V216.367C1003.18 215.174 1002.71 214.026 1001.86 213.181L987.616 198.935C986.772 198.091 985.624 197.618 984.43 197.618H972.205C970.415 197.618 968.698 198.327 967.426 199.594L953.838 213.181C952.994 214.026 952.521 215.174 952.521 216.367V225.761Z" fill="#141414"/>
<path d="M1054.83 202.115V191.647H1066.31V193.55H1057.17V195.864H1065.46V197.767H1057.17V200.212H1066.31V202.115H1054.83ZM1067.91 202.115V191.647H1069.87L1074.72 195.044H1074.79L1079.64 191.647H1081.6V202.115H1079.26V194.575L1075.93 196.801V202.115H1073.59V196.801L1070.25 194.575V202.115H1067.91ZM1083.65 202.115V191.676L1092.47 191.647C1093.63 191.647 1094.49 191.891 1095.04 192.379C1095.61 192.857 1095.89 193.58 1095.89 194.546C1095.89 195.512 1095.57 196.22 1094.93 196.669C1095.36 196.903 1095.67 197.215 1095.88 197.606C1096.08 197.986 1096.19 198.479 1096.19 199.085C1096.19 200.07 1095.9 200.822 1095.34 201.339C1094.78 201.847 1093.92 202.101 1092.76 202.101L1083.65 202.115ZM1092.19 193.521H1086V195.864H1092.19C1093.08 195.864 1093.52 195.463 1093.52 194.663C1093.52 193.902 1093.08 193.521 1092.19 193.521ZM1092.48 197.738H1086V200.227H1092.48C1093.37 200.227 1093.81 199.807 1093.81 198.967C1093.81 198.148 1093.37 197.738 1092.48 197.738ZM1097.79 202.115V191.647H1106.56C1107.65 191.647 1108.49 191.92 1109.08 192.467C1109.69 193.013 1109.99 193.843 1109.99 194.956C1109.99 195.903 1109.77 196.644 1109.33 197.181C1108.89 197.718 1108.27 198.055 1107.46 198.191L1109.87 202.115H1107.21L1104.97 198.265H1100.14V202.115H1097.79ZM1106.28 193.55H1100.14V196.347L1106.28 196.361C1106.71 196.361 1107.04 196.254 1107.27 196.039C1107.5 195.824 1107.62 195.463 1107.62 194.956C1107.62 194.438 1107.5 194.077 1107.27 193.872C1107.04 193.658 1106.71 193.55 1106.28 193.55ZM1110.87 202.115L1115.58 191.647H1119.2L1123.91 202.115H1121.37L1120.37 199.904H1114.41L1113.42 202.115H1110.87ZM1115.26 198.001H1119.52L1117.49 193.477H1117.3L1115.26 198.001ZM1130.19 202.188C1128.26 202.188 1126.78 201.744 1125.75 200.856C1124.73 199.958 1124.22 198.631 1124.22 196.874C1124.22 195.127 1124.73 193.804 1125.75 192.906C1126.78 192.008 1128.26 191.564 1130.19 191.574L1135.46 191.603V193.477H1130.35C1129.08 193.477 1128.14 193.745 1127.52 194.282C1126.91 194.819 1126.6 195.683 1126.6 196.874C1126.6 198.065 1126.91 198.933 1127.52 199.48C1128.14 200.017 1129.08 200.285 1130.35 200.285H1135.61V202.188H1130.19ZM1137.07 202.115V191.647H1148.55V193.55H1139.41V195.864H1147.7V197.767H1139.41V200.212H1148.55V202.115H1137.07ZM1154.9 196.947V191.647H1167.79V196.947H1165.42V193.55H1162.22V202.115H1159.88V193.55H1157.28V196.947H1154.9ZM1169.47 202.115V191.647H1171.81V195.937H1179.19V191.647H1181.53V202.115H1179.19V197.84H1171.81V202.115H1169.47ZM1183.58 202.115V191.647H1195.06V193.55H1185.92V195.864H1194.21V197.767H1185.92V200.212H1195.06V202.115H1183.58ZM1201.78 202.115V191.647H1212.97V193.55H1204.12V196.449H1211.83V198.352H1204.12V202.115H1201.78ZM1218.81 202.188C1217.75 202.188 1216.91 202.052 1216.29 201.778C1215.68 201.495 1215.24 201.071 1214.97 200.505C1214.71 199.939 1214.58 199.226 1214.58 198.367V191.647H1216.92V198.367C1216.92 199.109 1217.09 199.617 1217.43 199.89C1217.78 200.153 1218.37 200.285 1219.2 200.285H1222.03C1222.86 200.285 1223.45 200.153 1223.79 199.89C1224.14 199.617 1224.31 199.109 1224.31 198.367V191.647H1226.66V198.367C1226.66 199.226 1226.52 199.939 1226.26 200.505C1226 201.071 1225.56 201.495 1224.94 201.778C1224.33 202.052 1223.49 202.188 1222.43 202.188H1218.81ZM1228.34 196.947V191.647H1241.22V196.947H1238.85V193.55H1235.66V202.115H1233.32V193.55H1230.71V196.947H1228.34ZM1247.13 202.188C1246.07 202.188 1245.23 202.052 1244.61 201.778C1244 201.495 1243.56 201.071 1243.3 200.505C1243.03 199.939 1242.9 199.226 1242.9 198.367V191.647H1245.24V198.367C1245.24 199.109 1245.42 199.617 1245.76 199.89C1246.11 200.153 1246.7 200.285 1247.53 200.285H1250.35C1251.18 200.285 1251.77 200.153 1252.11 199.89C1252.46 199.617 1252.64 199.109 1252.64 198.367V191.647H1254.98V198.367C1254.98 199.226 1254.85 199.939 1254.59 200.505C1254.32 201.071 1253.88 201.495 1253.27 201.778C1252.65 202.052 1251.81 202.188 1250.75 202.188H1247.13ZM1257.03 202.115V191.647H1265.8C1266.88 191.647 1267.72 191.92 1268.32 192.467C1268.92 193.013 1269.22 193.843 1269.22 194.956C1269.22 195.903 1269 196.644 1268.57 197.181C1268.13 197.718 1267.5 198.055 1266.69 198.191L1269.11 202.115H1266.44L1264.2 198.265H1259.37V202.115H1257.03ZM1265.52 193.55H1259.37V196.347L1265.52 196.361C1265.95 196.361 1266.28 196.254 1266.5 196.039C1266.74 195.824 1266.85 195.463 1266.85 194.956C1266.85 194.438 1266.74 194.077 1266.5 193.872C1266.28 193.658 1265.95 193.55 1265.52 193.55ZM1270.98 202.115V191.647H1282.46V193.55H1273.33V195.864H1281.61V197.767H1273.33V200.212H1282.46V202.115H1270.98Z" fill="#FAF5EA"/>
<path d="M1438.49 176.575C1437.8 176.575 1437.15 176.845 1436.66 177.328L1429.22 184.777C1428.49 185.501 1427.51 185.907 1426.48 185.907H1421C1419.58 185.907 1418.43 184.754 1418.43 183.331V170.133H1424.86V179.79L1433.77 170.887C1434.25 170.404 1434.91 170.133 1435.59 170.133H1447.4V176.571H1438.49V176.575ZM1418.43 202.327H1424.87V192.67H1440.96V202.327H1447.4V196.955C1447.4 196.272 1447.13 195.615 1446.65 195.133L1438.5 186.985C1438.02 186.502 1437.36 186.232 1436.68 186.232H1429.69C1428.66 186.232 1427.68 186.637 1426.95 187.362L1419.18 195.133C1418.7 195.615 1418.43 196.272 1418.43 196.955V202.327Z" fill="#FAF5EA"/>
<path d="M1462 170.888L1468.54 177.426C1469.02 177.909 1469.29 178.566 1469.29 179.248V202.326H1462.85V179.148C1462.85 177.725 1461.7 176.573 1460.28 176.573H1451.59V170.135H1460.18C1460.86 170.135 1461.52 170.405 1462 170.888ZM1480.56 170.135H1470.58C1469.87 170.135 1469.29 170.711 1469.29 171.423V176.573H1480.56V170.135Z" fill="#FAF5EA"/>
<path d="M1508.03 186.983L1516.18 195.131C1516.67 195.614 1516.94 196.27 1516.94 196.953V202.326H1510.5V195.244C1510.5 193.821 1509.35 192.668 1507.92 192.668H1493.76C1492.34 192.668 1491.18 193.821 1491.18 195.244V202.326H1484.74V196.953C1484.74 196.27 1485.02 195.614 1485.5 195.131L1493.65 186.983C1494.13 186.501 1494.79 186.23 1495.47 186.23H1506.21C1506.89 186.23 1507.55 186.501 1508.03 186.983H1508.03ZM1495.47 170.135C1494.79 170.135 1494.13 170.405 1493.65 170.888L1485.5 179.036C1485.02 179.518 1484.75 180.175 1484.75 180.858V187.84H1491.19V179.148C1491.19 177.725 1492.34 176.573 1493.76 176.573H1507.93C1509.35 176.573 1510.5 177.725 1510.5 179.148V187.84H1516.94V180.858C1516.94 180.175 1516.67 179.518 1516.19 179.036L1508.04 170.888C1507.56 170.405 1506.9 170.135 1506.22 170.135H1495.47Z" fill="#FAF5EA"/>
<path d="M1544.41 170.888L1552.56 179.036C1553.04 179.518 1553.31 180.175 1553.31 180.858V202.326H1546.88V179.148C1546.88 177.725 1545.72 176.573 1544.3 176.573H1529.17L1534.86 170.888C1535.34 170.405 1536 170.135 1536.68 170.135H1542.59C1543.27 170.135 1543.93 170.405 1544.41 170.888ZM1521.13 170.135V202.326H1527.56V170.135H1521.13Z" fill="#FAF5EA"/>
<path d="M1580.79 186.983L1588.94 195.131C1589.42 195.614 1589.69 196.27 1589.69 196.953V202.326H1583.25V195.244C1583.25 193.821 1582.1 192.668 1580.68 192.668H1566.51C1565.09 192.668 1563.94 193.821 1563.94 195.244V202.326H1557.5V196.953C1557.5 196.27 1557.77 195.614 1558.25 195.131L1566.4 186.983C1566.88 186.501 1567.54 186.23 1568.22 186.23H1578.96C1579.65 186.23 1580.3 186.501 1580.79 186.983H1580.79ZM1568.23 170.135C1567.55 170.135 1566.89 170.405 1566.41 170.888L1558.26 179.036C1557.78 179.518 1557.51 180.175 1557.51 180.858V187.84H1563.94V179.148C1563.94 177.725 1565.1 176.573 1566.52 176.573H1580.68C1582.11 176.573 1583.26 177.725 1583.26 179.148V187.84H1589.7V180.858C1589.7 180.175 1589.43 179.518 1588.94 179.036L1580.8 170.888C1580.31 170.405 1579.66 170.135 1578.97 170.135H1568.23Z" fill="#FAF5EA"/>
<path d="M1419.57 222.162V214.376H1428.11V215.791H1421.31V217.512H1427.48V218.928H1421.31V220.746H1428.11V222.162H1419.57ZM1429.3 222.162V214.376H1430.76L1434.37 216.902H1434.42L1438.02 214.376H1439.48V222.162H1437.74V216.554L1435.27 218.209V222.162H1433.53V218.209L1431.04 216.554V222.162H1429.3ZM1441.01 222.162V214.398L1447.57 214.376C1448.43 214.376 1449.07 214.557 1449.48 214.92C1449.9 215.276 1450.11 215.813 1450.11 216.532C1450.11 217.251 1449.88 217.777 1449.4 218.111C1449.72 218.285 1449.95 218.518 1450.1 218.808C1450.26 219.091 1450.33 219.458 1450.33 219.908C1450.33 220.641 1450.12 221.2 1449.7 221.585C1449.29 221.962 1448.65 222.151 1447.78 222.151L1441.01 222.162ZM1447.36 215.77H1442.75V217.512H1447.36C1448.02 217.512 1448.35 217.214 1448.35 216.619C1448.35 216.053 1448.02 215.77 1447.36 215.77ZM1447.58 218.906H1442.75V220.757H1447.58C1448.24 220.757 1448.57 220.445 1448.57 219.821C1448.57 219.211 1448.24 218.906 1447.58 218.906ZM1451.53 222.162V214.376H1458.05C1458.86 214.376 1459.48 214.579 1459.92 214.986C1460.37 215.392 1460.6 216.009 1460.6 216.837C1460.6 217.541 1460.44 218.093 1460.11 218.492C1459.78 218.891 1459.32 219.142 1458.72 219.244L1460.51 222.162H1458.53L1456.86 219.298H1453.27V222.162H1451.53ZM1457.84 215.791H1453.27V217.871L1457.84 217.882C1458.16 217.882 1458.41 217.802 1458.57 217.643C1458.75 217.483 1458.84 217.214 1458.84 216.837C1458.84 216.452 1458.75 216.183 1458.57 216.031C1458.41 215.871 1458.16 215.791 1457.84 215.791ZM1461.25 222.162L1464.76 214.376H1467.45L1470.96 222.162H1469.06L1468.32 220.518H1463.89L1463.15 222.162H1461.25ZM1464.52 219.102H1467.69L1466.18 215.737H1466.04L1464.52 219.102ZM1475.63 222.217C1474.19 222.217 1473.09 221.886 1472.33 221.226C1471.56 220.558 1471.18 219.57 1471.18 218.263C1471.18 216.964 1471.56 215.98 1472.33 215.312C1473.09 214.644 1474.19 214.314 1475.63 214.321L1479.55 214.343V215.737H1475.75C1474.8 215.737 1474.1 215.937 1473.64 216.336C1473.19 216.735 1472.96 217.378 1472.96 218.263C1472.96 219.149 1473.19 219.795 1473.64 220.202C1474.1 220.601 1474.8 220.801 1475.75 220.801H1479.65V222.217H1475.63ZM1480.74 222.162V214.376H1489.28V215.791H1482.48V217.512H1488.65V218.928H1482.48V220.746H1489.28V222.162H1480.74ZM1494.01 218.318V214.376H1503.59V218.318H1501.83V215.791H1499.45V222.162H1497.71V215.791H1495.77V218.318H1494.01ZM1504.84 222.162V214.376H1506.58V217.567H1512.07V214.376H1513.81V222.162H1512.07V218.982H1506.58V222.162H1504.84ZM1515.34 222.162V214.376H1523.88V215.791H1517.08V217.512H1523.24V218.928H1517.08V220.746H1523.88V222.162H1515.34ZM1528.88 222.162V214.376H1537.2V215.791H1530.62V217.948H1536.35V219.363H1530.62V222.162H1528.88ZM1541.54 222.217C1540.75 222.217 1540.12 222.115 1539.67 221.912C1539.21 221.701 1538.88 221.385 1538.69 220.964C1538.49 220.543 1538.39 220.013 1538.39 219.374V214.376H1540.14V219.374C1540.14 219.926 1540.26 220.304 1540.52 220.507C1540.78 220.703 1541.22 220.801 1541.83 220.801H1543.94C1544.55 220.801 1544.99 220.703 1545.24 220.507C1545.5 220.304 1545.64 219.926 1545.64 219.374V214.376H1547.38V219.374C1547.38 220.013 1547.28 220.543 1547.08 220.964C1546.89 221.385 1546.56 221.701 1546.1 221.912C1545.65 222.115 1545.02 222.217 1544.23 222.217H1541.54ZM1548.63 218.318V214.376H1558.21V218.318H1556.45V215.791H1554.07V222.162H1552.33V215.791H1550.39V218.318H1548.63ZM1562.61 222.217C1561.82 222.217 1561.19 222.115 1560.74 221.912C1560.28 221.701 1559.95 221.385 1559.75 220.964C1559.56 220.543 1559.46 220.013 1559.46 219.374V214.376H1561.2V219.374C1561.2 219.926 1561.33 220.304 1561.58 220.507C1561.85 220.703 1562.29 220.801 1562.9 220.801H1565C1565.62 220.801 1566.06 220.703 1566.31 220.507C1566.57 220.304 1566.7 219.926 1566.7 219.374V214.376H1568.45V219.374C1568.45 220.013 1568.35 220.543 1568.15 220.964C1567.96 221.385 1567.63 221.701 1567.17 221.912C1566.71 222.115 1566.09 222.217 1565.3 222.217H1562.61ZM1569.97 222.162V214.376H1576.49C1577.3 214.376 1577.92 214.579 1578.36 214.986C1578.81 215.392 1579.04 216.009 1579.04 216.837C1579.04 217.541 1578.88 218.093 1578.55 218.492C1578.22 218.891 1577.76 219.142 1577.16 219.244L1578.95 222.162H1576.97L1575.3 219.298H1571.71V222.162H1569.97ZM1576.28 215.791H1571.71V217.871L1576.28 217.882C1576.6 217.882 1576.85 217.802 1577.01 217.643C1577.19 217.483 1577.28 217.214 1577.28 216.837C1577.28 216.452 1577.19 216.183 1577.01 216.031C1576.85 215.871 1576.6 215.791 1576.28 215.791ZM1580.35 222.162V214.376H1588.89V215.791H1582.09V217.512H1588.25V218.928H1582.09V220.746H1588.89V222.162H1580.35Z" fill="#FAF5EA"/>
<path d="M1784.59 180.389C1783.37 180.389 1782.2 180.871 1781.34 181.733L1768.05 195.022C1766.76 196.314 1765.01 197.038 1763.18 197.038H1753.4C1750.86 197.038 1748.8 194.982 1748.8 192.443V168.897H1760.29V186.126L1776.17 170.241C1777.03 169.379 1778.2 168.897 1779.42 168.897H1800.49V180.383H1784.59V180.389ZM1748.81 226.333H1760.29V209.104H1789.01V226.333H1800.49V216.748C1800.49 215.53 1800.01 214.359 1799.15 213.497L1784.61 198.962C1783.75 198.1 1782.58 197.618 1781.36 197.618H1768.89C1767.06 197.618 1765.31 198.341 1764.01 199.633L1750.15 213.497C1749.29 214.359 1748.81 215.53 1748.81 216.748V226.333Z" fill="#FAF5EA"/>
</svg>
