<svg width="1968" height="396" viewBox="0 0 1968 396" fill="none" xmlns="http://www.w3.org/2000/svg">
<rect width="1968" height="395.23" rx="18.8903" fill="#FAF5EA"/>
<rect width="80.919" height="80.919" transform="translate(143.941 137.569)" fill="#141414"/>
<path d="M192.455 164.076C191.469 164.076 190.52 164.467 189.822 165.164L179.058 175.929C178.011 176.975 176.592 177.562 175.108 177.562H167.186C165.13 177.562 163.465 175.896 163.465 173.84V154.768H172.768V168.723L185.635 155.856C186.333 155.158 187.282 154.768 188.268 154.768H205.336V164.071H192.455V164.076ZM163.469 201.29H172.773V187.335H196.032V201.29H205.336V193.527C205.336 192.54 204.945 191.591 204.247 190.894L192.474 179.12C191.776 178.422 190.827 178.031 189.841 178.031H179.737C178.258 178.031 176.839 178.617 175.788 179.664L164.558 190.894C163.86 191.591 163.469 192.54 163.469 193.527V201.29Z" fill="#FAF5EA"/>
<path d="M152.969 234.52C152.644 234.52 152.331 234.649 152.101 234.879L148.548 238.432C148.203 238.777 147.735 238.971 147.245 238.971H144.63C143.952 238.971 143.402 238.421 143.402 237.742V231.448H146.473V236.054L150.719 231.807C150.949 231.577 151.262 231.448 151.588 231.448H157.22V234.519H152.969V234.52ZM143.404 246.801H146.474V242.196H154.15V246.801H157.22V244.239C157.22 243.914 157.091 243.601 156.861 243.37L152.976 239.485C152.745 239.255 152.432 239.126 152.107 239.126H148.772C148.284 239.126 147.816 239.319 147.469 239.664L143.763 243.37C143.533 243.601 143.404 243.914 143.404 244.239V246.801Z" fill="#141414"/>
<path d="M164.182 231.808L167.3 234.926C167.53 235.156 167.659 235.47 167.659 235.795V246.801H164.589V235.747C164.589 235.069 164.039 234.519 163.361 234.519H159.216V231.449H163.313C163.639 231.449 163.952 231.578 164.182 231.808ZM173.034 231.449H168.275C167.936 231.449 167.661 231.724 167.661 232.063V234.519H173.034V231.449Z" fill="#141414"/>
<path d="M186.137 239.484L190.022 243.37C190.252 243.6 190.381 243.913 190.381 244.238V246.801H187.311V243.423C187.311 242.745 186.761 242.195 186.083 242.195H179.328C178.65 242.195 178.1 242.745 178.1 243.423V246.801H175.03V244.238C175.03 243.913 175.159 243.6 175.389 243.37L179.274 239.484C179.505 239.254 179.818 239.125 180.143 239.125H185.266C185.592 239.125 185.905 239.254 186.135 239.484H186.137ZM180.146 231.449C179.821 231.449 179.508 231.578 179.277 231.808L175.392 235.694C175.162 235.924 175.033 236.237 175.033 236.563V239.892H178.103V235.747C178.103 235.069 178.653 234.519 179.331 234.519H186.086C186.764 234.519 187.314 235.069 187.314 235.747V239.892H190.384V236.563C190.384 236.237 190.255 235.924 190.025 235.694L186.14 231.808C185.909 231.578 185.596 231.449 185.271 231.449H180.146Z" fill="#141414"/>
<path d="M203.485 231.808L207.371 235.694C207.601 235.924 207.73 236.237 207.73 236.563V246.801H204.66V235.747C204.66 235.069 204.11 234.519 203.432 234.519H196.216L198.928 231.808C199.158 231.578 199.471 231.449 199.796 231.449H202.617C202.942 231.449 203.255 231.578 203.485 231.808ZM192.38 231.449V246.801H195.45V231.449H192.38Z" fill="#141414"/>
<path d="M220.833 239.484L224.718 243.37C224.948 243.6 225.077 243.913 225.077 244.238V246.801H222.007V243.423C222.007 242.745 221.458 242.195 220.779 242.195H214.024C213.346 242.195 212.796 242.745 212.796 243.423V246.801H209.726V244.238C209.726 243.913 209.855 243.6 210.085 243.37L213.971 239.484C214.201 239.254 214.514 239.125 214.839 239.125H219.962C220.288 239.125 220.601 239.254 220.831 239.484H220.833ZM214.843 231.449C214.517 231.449 214.204 231.578 213.974 231.808L210.088 235.694C209.858 235.924 209.729 236.237 209.729 236.563V239.892H212.799V235.747C212.799 235.069 213.349 234.519 214.027 234.519H220.782C221.461 234.519 222.01 235.069 222.01 235.747V239.892H225.081V236.563C225.081 236.237 224.952 235.924 224.721 235.694L220.836 231.808C220.606 231.578 220.292 231.449 219.967 231.449H214.843Z" fill="#141414"/>
<path d="M144.109 255.591V251.878H148.18V252.553H144.94V253.374H147.879V254.049H144.94V254.916H148.18V255.591H144.109ZM148.749 255.591V251.878H149.445L151.164 253.083H151.19L152.909 251.878H153.605V255.591H152.774V252.917L151.595 253.706V255.591H150.764V253.706L149.58 252.917V255.591H148.749ZM154.333 255.591V251.888L157.46 251.878C157.872 251.878 158.176 251.965 158.374 252.138C158.575 252.307 158.675 252.564 158.675 252.906C158.675 253.249 158.561 253.5 158.332 253.659C158.485 253.742 158.597 253.853 158.67 253.992C158.742 254.127 158.779 254.302 158.779 254.516C158.779 254.866 158.678 255.133 158.478 255.316C158.28 255.496 157.976 255.586 157.564 255.586L154.333 255.591ZM157.361 252.543H155.164V253.374H157.361C157.676 253.374 157.834 253.232 157.834 252.948C157.834 252.678 157.676 252.543 157.361 252.543ZM157.465 254.038H155.164V254.921H157.465C157.78 254.921 157.937 254.772 157.937 254.475C157.937 254.184 157.78 254.038 157.465 254.038ZM159.349 255.591V251.878H162.46C162.844 251.878 163.142 251.975 163.353 252.169C163.568 252.363 163.675 252.657 163.675 253.052C163.675 253.388 163.597 253.651 163.442 253.841C163.286 254.032 163.064 254.151 162.777 254.199L163.634 255.591H162.689L161.894 254.225H160.18V255.591H159.349ZM162.361 252.553H160.18V253.545L162.361 253.55C162.514 253.55 162.63 253.512 162.709 253.436C162.792 253.36 162.834 253.232 162.834 253.052C162.834 252.868 162.792 252.74 162.709 252.667C162.63 252.591 162.514 252.553 162.361 252.553ZM163.988 255.591L165.66 251.878H166.943L168.615 255.591H167.711L167.358 254.807H165.244L164.891 255.591H163.988ZM165.546 254.132H167.057L166.335 252.527H166.267L165.546 254.132ZM170.841 255.617C170.155 255.617 169.631 255.46 169.267 255.145C168.904 254.826 168.722 254.355 168.722 253.732C168.722 253.112 168.904 252.643 169.267 252.325C169.631 252.006 170.155 251.849 170.841 251.852L172.71 251.862V252.527H170.898C170.448 252.527 170.114 252.622 169.896 252.813C169.677 253.003 169.568 253.31 169.568 253.732C169.568 254.154 169.677 254.463 169.896 254.656C170.114 254.847 170.448 254.942 170.898 254.942H172.762V255.617H170.841ZM173.281 255.591V251.878H177.353V252.553H174.112V253.374H177.051V254.049H174.112V254.916H177.353V255.591H173.281ZM179.607 253.758V251.878H184.178V253.758H183.336V252.553H182.204V255.591H181.373V252.553H180.449V253.758H179.607ZM184.773 255.591V251.878H185.604V253.4H188.222V251.878H189.053V255.591H188.222V254.075H185.604V255.591H184.773ZM189.779 255.591V251.878H193.851V252.553H190.61V253.374H193.55V254.049H190.61V254.916H193.851V255.591H189.779ZM196.235 255.591V251.878H200.203V252.553H197.066V253.581H199.798V254.257H197.066V255.591H196.235ZM202.276 255.617C201.898 255.617 201.6 255.569 201.382 255.472C201.164 255.371 201.008 255.221 200.915 255.02C200.821 254.819 200.775 254.566 200.775 254.262V251.878H201.606V254.262C201.606 254.525 201.666 254.705 201.787 254.802C201.912 254.895 202.121 254.942 202.416 254.942H203.418C203.712 254.942 203.92 254.895 204.041 254.802C204.166 254.705 204.228 254.525 204.228 254.262V251.878H205.059V254.262C205.059 254.566 205.012 254.819 204.919 255.02C204.825 255.221 204.67 255.371 204.452 255.472C204.233 255.569 203.936 255.617 203.558 255.617H202.276ZM205.656 253.758V251.878H210.226V253.758H209.384V252.553H208.252V255.591H207.421V252.553H206.497V253.758H205.656ZM212.323 255.617C211.945 255.617 211.647 255.569 211.429 255.472C211.211 255.371 211.055 255.221 210.962 255.02C210.868 254.819 210.822 254.566 210.822 254.262V251.878H211.653V254.262C211.653 254.525 211.713 254.705 211.834 254.802C211.959 254.895 212.168 254.942 212.463 254.942H213.465C213.759 254.942 213.967 254.895 214.088 254.802C214.213 254.705 214.275 254.525 214.275 254.262V251.878H215.106V254.262C215.106 254.566 215.059 254.819 214.966 255.02C214.872 255.221 214.717 255.371 214.499 255.472C214.28 255.569 213.983 255.617 213.605 255.617H212.323ZM215.832 255.591V251.878H218.943C219.328 251.878 219.625 251.975 219.837 252.169C220.051 252.363 220.159 252.657 220.159 253.052C220.159 253.388 220.081 253.651 219.925 253.841C219.769 254.032 219.547 254.151 219.26 254.199L220.117 255.591H219.172L218.377 254.225H216.663V255.591H215.832ZM218.845 252.553H216.663V253.545L218.845 253.55C218.997 253.55 219.113 253.512 219.193 253.436C219.276 253.36 219.317 253.232 219.317 253.052C219.317 252.868 219.276 252.74 219.193 252.667C219.113 252.591 218.997 252.553 218.845 252.553ZM220.782 255.591V251.878H224.854V252.553H221.613V253.374H224.553V254.049H221.613V254.916H224.854V255.591H220.782Z" fill="#141414"/>
<rect width="94.68" height="94.68" transform="translate(360.402 150.275)" fill="#141414"/>
<path d="M417.166 181.289C416.012 181.289 414.902 181.746 414.086 182.562L401.491 195.157C400.266 196.382 398.606 197.068 396.87 197.068H387.6C385.195 197.068 383.246 195.119 383.246 192.713V170.397H394.132V186.726L409.187 171.671C410.003 170.855 411.114 170.397 412.268 170.397H432.238V181.283H417.166V181.289ZM383.252 224.832H394.137V208.503H421.352V224.832H432.238V215.748C432.238 214.594 431.781 213.484 430.964 212.667L417.188 198.891C416.372 198.075 415.261 197.617 414.107 197.617H402.285C400.555 197.617 398.894 198.303 397.664 199.528L384.525 212.667C383.709 213.484 383.252 214.594 383.252 215.748V224.832Z" fill="#FAF5EA"/>
<path d="M493.421 181.637C492.801 181.637 492.204 181.883 491.765 182.322L484.993 189.094C484.335 189.752 483.442 190.121 482.508 190.121H477.525C476.231 190.121 475.184 189.073 475.184 187.78V175.781H481.036V184.561L489.131 176.466C489.57 176.027 490.167 175.781 490.787 175.781H501.524V181.634H493.421V181.637ZM475.187 205.048H481.039V196.269H495.671V205.048H501.524V200.164C501.524 199.544 501.278 198.947 500.84 198.508L493.433 191.101C492.994 190.662 492.397 190.416 491.776 190.416H485.42C484.49 190.416 483.597 190.785 482.936 191.443L475.871 198.508C475.432 198.947 475.187 199.544 475.187 200.164V205.048Z" fill="#141414"/>
<path d="M514.796 176.467L520.739 182.411C521.178 182.85 521.424 183.447 521.424 184.067V205.047H515.571V183.977C515.571 182.683 514.523 181.636 513.23 181.636H505.329V175.783H513.139C513.76 175.783 514.357 176.029 514.796 176.467ZM531.669 175.783H522.597C521.951 175.783 521.427 176.307 521.427 176.953V181.636H531.669V175.783Z" fill="#141414"/>
<path d="M556.646 191.1L564.053 198.506C564.492 198.945 564.738 199.542 564.738 200.163V205.047H558.885V198.609C558.885 197.315 557.837 196.268 556.544 196.268H543.668C542.374 196.268 541.327 197.315 541.327 198.609V205.047H535.474V200.163C535.474 199.542 535.72 198.945 536.159 198.506L543.565 191.1C544.004 190.661 544.601 190.415 545.222 190.415H554.987C555.608 190.415 556.204 190.661 556.643 191.1H556.646ZM545.227 175.783C544.607 175.783 544.01 176.029 543.571 176.467L536.164 183.874C535.725 184.313 535.48 184.91 535.48 185.531V191.878H541.332V183.977C541.332 182.683 542.38 181.636 543.674 181.636H556.55C557.843 181.636 558.891 182.683 558.891 183.977V191.878H564.744V185.531C564.744 184.91 564.498 184.313 564.059 183.874L556.652 176.467C556.213 176.029 555.616 175.783 554.996 175.783H545.227Z" fill="#141414"/>
<path d="M589.718 176.467L597.125 183.874C597.564 184.313 597.809 184.91 597.809 185.531V205.047H591.957V183.977C591.957 182.683 590.909 181.636 589.615 181.636H575.861L581.029 176.467C581.468 176.029 582.065 175.783 582.686 175.783H588.062C588.682 175.783 589.279 176.029 589.718 176.467ZM568.548 175.783V205.047H574.401V175.783H568.548Z" fill="#141414"/>
<path d="M622.786 191.1L630.193 198.506C630.632 198.945 630.878 199.542 630.878 200.163V205.047H625.025V198.609C625.025 197.315 623.977 196.268 622.684 196.268H609.808C608.514 196.268 607.467 197.315 607.467 198.609V205.047H601.614V200.163C601.614 199.542 601.86 198.945 602.299 198.506L609.705 191.1C610.144 190.661 610.741 190.415 611.362 190.415H621.127C621.748 190.415 622.345 190.661 622.784 191.1H622.786ZM611.368 175.783C610.747 175.783 610.15 176.029 609.711 176.467L602.304 183.874C601.865 184.313 601.62 184.91 601.62 185.531V191.878H607.472V183.977C607.472 182.683 608.52 181.636 609.814 181.636H622.69C623.983 181.636 625.031 182.683 625.031 183.977V191.878H630.884V185.531C630.884 184.91 630.638 184.313 630.199 183.874L622.792 176.467C622.353 176.029 621.756 175.783 621.136 175.783H611.368Z" fill="#141414"/>
<path d="M476.073 217.099V210.02H483.834V211.307H477.657V212.871H483.26V214.158H477.657V215.812H483.834V217.099H476.073ZM484.919 217.099V210.02H486.245L489.522 212.317H489.572L492.849 210.02H494.175V217.099H492.591V212L490.344 213.505V217.099H488.76V213.505L486.503 212V217.099H484.919ZM495.563 217.099V210.04L501.523 210.02C502.308 210.02 502.889 210.185 503.265 210.515C503.648 210.839 503.84 211.327 503.84 211.98C503.84 212.634 503.622 213.112 503.186 213.416C503.477 213.574 503.691 213.785 503.83 214.049C503.968 214.307 504.038 214.64 504.038 215.049C504.038 215.716 503.846 216.224 503.463 216.574C503.087 216.917 502.506 217.089 501.721 217.089L495.563 217.099ZM501.335 211.287H497.147V212.871H501.335C501.935 212.871 502.236 212.601 502.236 212.06C502.236 211.545 501.935 211.287 501.335 211.287ZM501.533 214.139H497.147V215.822H501.533C502.133 215.822 502.434 215.538 502.434 214.97C502.434 214.416 502.133 214.139 501.533 214.139ZM505.125 217.099V210.02H511.055C511.787 210.02 512.355 210.205 512.758 210.575C513.167 210.944 513.371 211.505 513.371 212.258C513.371 212.898 513.223 213.399 512.926 213.762C512.629 214.125 512.207 214.353 511.659 214.445L513.292 217.099H511.49L509.976 214.495H506.709V217.099H505.125ZM510.867 211.307H506.709V213.198L510.867 213.208C511.157 213.208 511.378 213.135 511.53 212.99C511.688 212.845 511.768 212.601 511.768 212.258C511.768 211.908 511.688 211.664 511.53 211.525C511.378 211.38 511.157 211.307 510.867 211.307ZM513.967 217.099L517.155 210.02H519.6L522.788 217.099H521.065L520.392 215.604H516.363L515.689 217.099H513.967ZM516.937 214.317H519.818L518.442 211.258H518.313L516.937 214.317ZM527.031 217.148C525.724 217.148 524.724 216.848 524.031 216.247C523.338 215.64 522.992 214.742 522.992 213.554C522.992 212.373 523.338 211.479 524.031 210.872C524.724 210.264 525.724 209.964 527.031 209.971L530.595 209.99V211.258H527.14C526.282 211.258 525.645 211.439 525.229 211.802C524.813 212.165 524.605 212.749 524.605 213.554C524.605 214.36 524.813 214.947 525.229 215.317C525.645 215.68 526.282 215.861 527.14 215.861H530.694V217.148H527.031ZM531.683 217.099V210.02H539.444V211.307H533.267V212.871H538.87V214.158H533.267V215.812H539.444V217.099H531.683ZM543.743 213.604V210.02H552.455V213.604H550.851V211.307H548.693V217.099H547.109V211.307H545.346V213.604H543.743ZM553.59 217.099V210.02H555.174V212.921H560.164V210.02H561.748V217.099H560.164V214.208H555.174V217.099H553.59ZM563.133 217.099V210.02H570.894V211.307H564.717V212.871H570.32V214.158H564.717V215.812H570.894V217.099H563.133ZM575.44 217.099V210.02H583.004V211.307H577.024V213.267H582.231V214.554H577.024V217.099H575.44ZM586.954 217.148C586.234 217.148 585.667 217.056 585.251 216.871C584.835 216.68 584.538 216.392 584.36 216.01C584.182 215.627 584.093 215.145 584.093 214.564V210.02H585.677V214.564C585.677 215.066 585.792 215.409 586.023 215.594C586.261 215.772 586.66 215.861 587.221 215.861H589.132C589.693 215.861 590.089 215.772 590.32 215.594C590.557 215.409 590.676 215.066 590.676 214.564V210.02H592.26V214.564C592.26 215.145 592.171 215.627 591.993 216.01C591.815 216.392 591.518 216.68 591.102 216.871C590.686 217.056 590.119 217.148 589.399 217.148H586.954ZM593.397 213.604V210.02H602.109V213.604H600.505V211.307H598.347V217.099H596.763V211.307H595.001V213.604H593.397ZM606.106 217.148C605.387 217.148 604.819 217.056 604.403 216.871C603.988 216.68 603.691 216.392 603.512 216.01C603.334 215.627 603.245 215.145 603.245 214.564V210.02H604.829V214.564C604.829 215.066 604.945 215.409 605.176 215.594C605.413 215.772 605.812 215.861 606.373 215.861H608.284C608.845 215.861 609.241 215.772 609.472 215.594C609.71 215.409 609.829 215.066 609.829 214.564V210.02H611.413V214.564C611.413 215.145 611.323 215.627 611.145 216.01C610.967 216.392 610.67 216.68 610.254 216.871C609.838 217.056 609.271 217.148 608.551 217.148H606.106ZM612.797 217.099V210.02H618.727C619.46 210.02 620.027 210.205 620.43 210.575C620.839 210.944 621.044 211.505 621.044 212.258C621.044 212.898 620.895 213.399 620.598 213.762C620.301 214.125 619.879 214.353 619.331 214.445L620.964 217.099H619.163L617.648 214.495H614.381V217.099H612.797ZM618.539 211.307H614.381V213.198L618.539 213.208C618.829 213.208 619.05 213.135 619.202 212.99C619.361 212.845 619.44 212.601 619.44 212.258C619.44 211.908 619.361 211.664 619.202 211.525C619.05 211.38 618.829 211.307 618.539 211.307ZM622.233 217.099V210.02H629.994V211.307H623.817V212.871H629.42V214.158H623.817V215.812H629.994V217.099H622.233Z" fill="#141414"/>
<path d="M781.859 189.925C781.315 189.925 780.792 190.141 780.408 190.525L774.476 196.457C773.899 197.034 773.117 197.357 772.299 197.357H767.934C766.801 197.357 765.883 196.439 765.883 195.306V184.796H771.01V192.486L778.1 185.396C778.485 185.011 779.008 184.796 779.551 184.796H788.957V189.923H781.859V189.925ZM765.885 210.434H771.012V202.743H783.83V210.434H788.957V206.155C788.957 205.612 788.742 205.089 788.357 204.704L781.869 198.216C781.484 197.831 780.961 197.616 780.418 197.616H774.85C774.035 197.616 773.253 197.939 772.674 198.516L766.485 204.704C766.101 205.089 765.885 205.612 765.885 206.155V210.434Z" fill="#141414"/>
<path d="M800.582 185.397L805.789 190.604C806.173 190.988 806.389 191.511 806.389 192.054V210.432H801.262V191.975C801.262 190.842 800.344 189.924 799.211 189.924H792.29V184.797H799.132C799.675 184.797 800.198 185.013 800.582 185.397ZM815.364 184.797H807.417C806.85 184.797 806.391 185.256 806.391 185.823V189.924H815.364V184.797Z" fill="#141414"/>
<path d="M837.243 198.215L843.731 204.703C844.116 205.087 844.331 205.61 844.331 206.154V210.432H839.204V204.793C839.204 203.659 838.287 202.742 837.153 202.742H825.874C824.741 202.742 823.823 203.659 823.823 204.793V210.432H818.696V206.154C818.696 205.61 818.912 205.087 819.296 204.703L825.784 198.215C826.169 197.83 826.692 197.615 827.235 197.615H835.79C836.333 197.615 836.856 197.83 837.241 198.215H837.243ZM827.24 184.797C826.697 184.797 826.174 185.013 825.789 185.397L819.301 191.885C818.917 192.27 818.701 192.793 818.701 193.336V198.896H823.828V191.975C823.828 190.842 824.746 189.924 825.879 189.924H837.159C838.292 189.924 839.209 190.842 839.209 191.975V198.896H844.336V193.336C844.336 192.793 844.121 192.27 843.737 191.885L837.248 185.397C836.864 185.013 836.341 184.797 835.797 184.797H827.24Z" fill="#141414"/>
<path d="M866.213 185.397L872.702 191.885C873.086 192.27 873.301 192.793 873.301 193.336V210.432H868.174V191.975C868.174 190.842 867.257 189.924 866.124 189.924H854.075L858.602 185.397C858.987 185.013 859.51 184.797 860.053 184.797H864.762C865.306 184.797 865.829 185.013 866.213 185.397ZM847.669 184.797V210.432H852.796V184.797H847.669Z" fill="#141414"/>
<path d="M895.181 198.215L901.669 204.703C902.054 205.087 902.269 205.61 902.269 206.154V210.432H897.142V204.793C897.142 203.659 896.224 202.742 895.091 202.742H883.812C882.679 202.742 881.761 203.659 881.761 204.793V210.432H876.634V206.154C876.634 205.61 876.849 205.087 877.234 204.703L883.722 198.215C884.107 197.83 884.63 197.615 885.173 197.615H893.727C894.271 197.615 894.794 197.83 895.178 198.215H895.181ZM885.178 184.797C884.635 184.797 884.112 185.013 883.727 185.397L877.239 191.885C876.854 192.27 876.639 192.793 876.639 193.336V198.896H881.766V191.975C881.766 190.842 882.684 189.924 883.817 189.924H895.096C896.229 189.924 897.147 190.842 897.147 191.975V198.896H902.274V193.336C902.274 192.793 902.059 192.27 901.674 191.885L895.186 185.397C894.802 185.013 894.279 184.797 893.735 184.797H885.178Z" fill="#141414"/>
<rect width="97.912" height="97.912" transform="translate(928.895 148.659)" fill="#141414"/>
<path d="M987.598 180.732C986.404 180.732 985.256 181.205 984.412 182.049L971.387 195.074C970.12 196.34 968.404 197.049 966.608 197.049H957.022C954.535 197.049 952.52 195.034 952.52 192.546V169.469H963.777V186.355L979.346 170.786C980.19 169.942 981.339 169.469 982.532 169.469H1003.18V180.726H987.598V180.732ZM952.525 225.761H963.783V208.875H991.926V225.761H1003.18V216.367C1003.18 215.174 1002.71 214.026 1001.87 213.181L987.62 198.935C986.776 198.091 985.628 197.618 984.434 197.618H972.209C970.419 197.618 968.702 198.327 967.43 199.594L953.842 213.181C952.998 214.026 952.525 215.174 952.525 216.367V225.761Z" fill="#FAF5EA"/>
<path d="M1054.83 202.115V191.647H1066.31V193.55H1057.17V195.864H1065.46V197.767H1057.17V200.212H1066.31V202.115H1054.83ZM1067.91 202.115V191.647H1069.88L1074.72 195.044H1074.8L1079.64 191.647H1081.6V202.115H1079.26V194.575L1075.94 196.801V202.115H1073.6V196.801L1070.26 194.575V202.115H1067.91ZM1083.66 202.115V191.676L1092.47 191.647C1093.63 191.647 1094.49 191.891 1095.05 192.379C1095.61 192.857 1095.9 193.58 1095.9 194.546C1095.9 195.512 1095.57 196.22 1094.93 196.669C1095.36 196.903 1095.68 197.215 1095.88 197.606C1096.09 197.986 1096.19 198.479 1096.19 199.085C1096.19 200.07 1095.91 200.822 1095.34 201.339C1094.78 201.847 1093.92 202.101 1092.76 202.101L1083.66 202.115ZM1092.19 193.521H1086V195.864H1092.19C1093.08 195.864 1093.52 195.463 1093.52 194.663C1093.52 193.902 1093.08 193.521 1092.19 193.521ZM1092.48 197.738H1086V200.227H1092.48C1093.37 200.227 1093.82 199.807 1093.82 198.967C1093.82 198.148 1093.37 197.738 1092.48 197.738ZM1097.8 202.115V191.647H1106.57C1107.65 191.647 1108.49 191.92 1109.09 192.467C1109.69 193.013 1109.99 193.843 1109.99 194.956C1109.99 195.903 1109.77 196.644 1109.33 197.181C1108.89 197.718 1108.27 198.055 1107.46 198.191L1109.88 202.115H1107.21L1104.97 198.265H1100.14V202.115H1097.8ZM1106.29 193.55H1100.14V196.347L1106.29 196.361C1106.72 196.361 1107.05 196.254 1107.27 196.039C1107.5 195.824 1107.62 195.463 1107.62 194.956C1107.62 194.438 1107.5 194.077 1107.27 193.872C1107.05 193.658 1106.72 193.55 1106.29 193.55ZM1110.87 202.115L1115.59 191.647H1119.2L1123.92 202.115H1121.37L1120.38 199.904H1114.42L1113.42 202.115H1110.87ZM1115.27 198.001H1119.53L1117.49 193.477H1117.3L1115.27 198.001ZM1130.19 202.188C1128.26 202.188 1126.78 201.744 1125.76 200.856C1124.73 199.958 1124.22 198.631 1124.22 196.874C1124.22 195.127 1124.73 193.804 1125.76 192.906C1126.78 192.008 1128.26 191.564 1130.19 191.574L1135.46 191.603V193.477H1130.35C1129.09 193.477 1128.14 193.745 1127.53 194.282C1126.91 194.819 1126.61 195.683 1126.61 196.874C1126.61 198.065 1126.91 198.933 1127.53 199.48C1128.14 200.017 1129.09 200.285 1130.35 200.285H1135.61V202.188H1130.19ZM1137.07 202.115V191.647H1148.55V193.55H1139.42V195.864H1147.7V197.767H1139.42V200.212H1148.55V202.115H1137.07ZM1154.91 196.947V191.647H1167.79V196.947H1165.42V193.55H1162.23V202.115H1159.89V193.55H1157.28V196.947H1154.91ZM1169.47 202.115V191.647H1171.81V195.937H1179.19V191.647H1181.54V202.115H1179.19V197.84H1171.81V202.115H1169.47ZM1183.58 202.115V191.647H1195.06V193.55H1185.93V195.864H1194.21V197.767H1185.93V200.212H1195.06V202.115H1183.58ZM1201.79 202.115V191.647H1212.97V193.55H1204.13V196.449H1211.83V198.352H1204.13V202.115H1201.79ZM1218.81 202.188C1217.75 202.188 1216.91 202.052 1216.29 201.778C1215.68 201.495 1215.24 201.071 1214.98 200.505C1214.71 199.939 1214.58 199.226 1214.58 198.367V191.647H1216.92V198.367C1216.92 199.109 1217.1 199.617 1217.44 199.89C1217.79 200.153 1218.38 200.285 1219.21 200.285H1222.03C1222.86 200.285 1223.45 200.153 1223.79 199.89C1224.14 199.617 1224.32 199.109 1224.32 198.367V191.647H1226.66V198.367C1226.66 199.226 1226.53 199.939 1226.27 200.505C1226 201.071 1225.56 201.495 1224.95 201.778C1224.33 202.052 1223.49 202.188 1222.43 202.188H1218.81ZM1228.34 196.947V191.647H1241.23V196.947H1238.85V193.55H1235.66V202.115H1233.32V193.55H1230.71V196.947H1228.34ZM1247.14 202.188C1246.07 202.188 1245.23 202.052 1244.62 201.778C1244 201.495 1243.56 201.071 1243.3 200.505C1243.04 199.939 1242.91 199.226 1242.91 198.367V191.647H1245.25V198.367C1245.25 199.109 1245.42 199.617 1245.76 199.89C1246.11 200.153 1246.7 200.285 1247.53 200.285H1250.36C1251.19 200.285 1251.77 200.153 1252.12 199.89C1252.47 199.617 1252.64 199.109 1252.64 198.367V191.647H1254.98V198.367C1254.98 199.226 1254.85 199.939 1254.59 200.505C1254.33 201.071 1253.89 201.495 1253.27 201.778C1252.66 202.052 1251.82 202.188 1250.75 202.188H1247.14ZM1257.03 202.115V191.647H1265.8C1266.89 191.647 1267.72 191.92 1268.32 192.467C1268.93 193.013 1269.23 193.843 1269.23 194.956C1269.23 195.903 1269.01 196.644 1268.57 197.181C1268.13 197.718 1267.51 198.055 1266.7 198.191L1269.11 202.115H1266.45L1264.21 198.265H1259.37V202.115H1257.03ZM1265.52 193.55H1259.37V196.347L1265.52 196.361C1265.95 196.361 1266.28 196.254 1266.5 196.039C1266.74 195.824 1266.86 195.463 1266.86 194.956C1266.86 194.438 1266.74 194.077 1266.5 193.872C1266.28 193.658 1265.95 193.55 1265.52 193.55ZM1270.99 202.115V191.647H1282.47V193.55H1273.33V195.864H1281.62V197.767H1273.33V200.212H1282.47V202.115H1270.99Z" fill="#141414"/>
<path d="M1438.49 176.575C1437.8 176.575 1437.15 176.845 1436.66 177.328L1429.22 184.777C1428.49 185.501 1427.51 185.907 1426.48 185.907H1421C1419.58 185.907 1418.43 184.754 1418.43 183.331V170.133H1424.86V179.79L1433.77 170.887C1434.25 170.404 1434.91 170.133 1435.59 170.133H1447.4V176.571H1438.49V176.575ZM1418.43 202.327H1424.87V192.67H1440.96V202.327H1447.4V196.955C1447.4 196.272 1447.13 195.615 1446.65 195.133L1438.5 186.985C1438.02 186.502 1437.36 186.232 1436.68 186.232H1429.69C1428.66 186.232 1427.68 186.637 1426.95 187.362L1419.18 195.133C1418.7 195.615 1418.43 196.272 1418.43 196.955V202.327Z" fill="#141414"/>
<path d="M1462 170.888L1468.54 177.426C1469.02 177.909 1469.29 178.566 1469.29 179.248V202.326H1462.85V179.148C1462.85 177.725 1461.7 176.573 1460.28 176.573H1451.59V170.135H1460.18C1460.86 170.135 1461.52 170.405 1462 170.888ZM1480.56 170.135H1470.58C1469.87 170.135 1469.29 170.711 1469.29 171.423V176.573H1480.56V170.135Z" fill="#141414"/>
<path d="M1508.03 186.983L1516.18 195.131C1516.67 195.614 1516.94 196.27 1516.94 196.953V202.326H1510.5V195.244C1510.5 193.821 1509.35 192.668 1507.92 192.668H1493.76C1492.34 192.668 1491.18 193.821 1491.18 195.244V202.326H1484.74V196.953C1484.74 196.27 1485.02 195.614 1485.5 195.131L1493.65 186.983C1494.13 186.501 1494.79 186.23 1495.47 186.23H1506.21C1506.89 186.23 1507.55 186.501 1508.03 186.983H1508.03ZM1495.47 170.135C1494.79 170.135 1494.13 170.405 1493.65 170.888L1485.5 179.036C1485.02 179.518 1484.75 180.175 1484.75 180.858V187.84H1491.19V179.148C1491.19 177.725 1492.34 176.573 1493.76 176.573H1507.93C1509.35 176.573 1510.5 177.725 1510.5 179.148V187.84H1516.94V180.858C1516.94 180.175 1516.67 179.518 1516.19 179.036L1508.04 170.888C1507.56 170.405 1506.9 170.135 1506.22 170.135H1495.47Z" fill="#141414"/>
<path d="M1544.41 170.888L1552.56 179.036C1553.04 179.518 1553.31 180.175 1553.31 180.858V202.326H1546.88V179.148C1546.88 177.725 1545.72 176.573 1544.3 176.573H1529.17L1534.86 170.888C1535.34 170.405 1536 170.135 1536.68 170.135H1542.59C1543.27 170.135 1543.93 170.405 1544.41 170.888ZM1521.13 170.135V202.326H1527.56V170.135H1521.13Z" fill="#141414"/>
<path d="M1580.79 186.983L1588.94 195.131C1589.42 195.614 1589.69 196.27 1589.69 196.953V202.326H1583.25V195.244C1583.25 193.821 1582.1 192.668 1580.68 192.668H1566.51C1565.09 192.668 1563.94 193.821 1563.94 195.244V202.326H1557.5V196.953C1557.5 196.27 1557.77 195.614 1558.25 195.131L1566.4 186.983C1566.88 186.501 1567.54 186.23 1568.22 186.23H1578.96C1579.65 186.23 1580.3 186.501 1580.79 186.983H1580.79ZM1568.23 170.135C1567.55 170.135 1566.89 170.405 1566.41 170.888L1558.26 179.036C1557.78 179.518 1557.51 180.175 1557.51 180.858V187.84H1563.94V179.148C1563.94 177.725 1565.1 176.573 1566.52 176.573H1580.68C1582.11 176.573 1583.26 177.725 1583.26 179.148V187.84H1589.7V180.858C1589.7 180.175 1589.43 179.518 1588.94 179.036L1580.8 170.888C1580.31 170.405 1579.66 170.135 1578.97 170.135H1568.23Z" fill="#141414"/>
<path d="M1419.43 222.162V214.376H1427.97V215.791H1421.18V217.512H1427.34V218.928H1421.18V220.746H1427.97V222.162H1419.43ZM1429.17 222.162V214.376H1430.62L1434.23 216.902H1434.28L1437.89 214.376H1439.35V222.162H1437.61V216.554L1435.13 218.209V222.162H1433.39V218.209L1430.91 216.554V222.162H1429.17ZM1440.87 222.162V214.398L1447.43 214.376C1448.29 214.376 1448.93 214.557 1449.35 214.92C1449.77 215.276 1449.98 215.813 1449.98 216.532C1449.98 217.251 1449.74 217.777 1449.26 218.111C1449.58 218.285 1449.81 218.518 1449.97 218.808C1450.12 219.091 1450.2 219.458 1450.2 219.908C1450.2 220.641 1449.99 221.2 1449.56 221.585C1449.15 221.962 1448.51 222.151 1447.65 222.151L1440.87 222.162ZM1447.22 215.77H1442.62V217.512H1447.22C1447.88 217.512 1448.21 217.214 1448.21 216.619C1448.21 216.053 1447.88 215.77 1447.22 215.77ZM1447.44 218.906H1442.62V220.757H1447.44C1448.1 220.757 1448.43 220.445 1448.43 219.821C1448.43 219.211 1448.1 218.906 1447.44 218.906ZM1451.39 222.162V214.376H1457.92C1458.72 214.376 1459.35 214.579 1459.79 214.986C1460.24 215.392 1460.46 216.009 1460.46 216.837C1460.46 217.541 1460.3 218.093 1459.97 218.492C1459.65 218.891 1459.18 219.142 1458.58 219.244L1460.38 222.162H1458.39L1456.73 219.298H1453.13V222.162H1451.39ZM1457.71 215.791H1453.13V217.871L1457.71 217.882C1458.03 217.882 1458.27 217.802 1458.44 217.643C1458.61 217.483 1458.7 217.214 1458.7 216.837C1458.7 216.452 1458.61 216.183 1458.44 216.031C1458.27 215.871 1458.03 215.791 1457.71 215.791ZM1461.12 222.162L1464.62 214.376H1467.31L1470.82 222.162H1468.93L1468.19 220.518H1463.75L1463.01 222.162H1461.12ZM1464.39 219.102H1467.55L1466.04 215.737H1465.9L1464.39 219.102ZM1475.49 222.217C1474.05 222.217 1472.95 221.886 1472.19 221.226C1471.43 220.558 1471.05 219.57 1471.05 218.263C1471.05 216.964 1471.43 215.98 1472.19 215.312C1472.95 214.644 1474.05 214.314 1475.49 214.321L1479.41 214.343V215.737H1475.61C1474.66 215.737 1473.96 215.937 1473.51 216.336C1473.05 216.735 1472.82 217.378 1472.82 218.263C1472.82 219.149 1473.05 219.795 1473.51 220.202C1473.96 220.601 1474.66 220.801 1475.61 220.801H1479.52V222.217H1475.49ZM1480.61 222.162V214.376H1489.14V215.791H1482.35V217.512H1488.51V218.928H1482.35V220.746H1489.14V222.162H1480.61ZM1493.87 218.318V214.376H1503.45V218.318H1501.69V215.791H1499.32V222.162H1497.57V215.791H1495.64V218.318H1493.87ZM1504.7 222.162V214.376H1506.45V217.567H1511.93V214.376H1513.68V222.162H1511.93V218.982H1506.45V222.162H1504.7ZM1515.2 222.162V214.376H1523.74V215.791H1516.94V217.512H1523.11V218.928H1516.94V220.746H1523.74V222.162H1515.2ZM1528.74 222.162V214.376H1537.06V215.791H1530.48V217.948H1536.21V219.363H1530.48V222.162H1528.74ZM1541.4 222.217C1540.61 222.217 1539.99 222.115 1539.53 221.912C1539.07 221.701 1538.75 221.385 1538.55 220.964C1538.35 220.543 1538.26 220.013 1538.26 219.374V214.376H1540V219.374C1540 219.926 1540.13 220.304 1540.38 220.507C1540.64 220.703 1541.08 220.801 1541.7 220.801H1543.8C1544.42 220.801 1544.85 220.703 1545.11 220.507C1545.37 220.304 1545.5 219.926 1545.5 219.374V214.376H1547.24V219.374C1547.24 220.013 1547.14 220.543 1546.95 220.964C1546.75 221.385 1546.42 221.701 1545.97 221.912C1545.51 222.115 1544.89 222.217 1544.09 222.217H1541.4ZM1548.49 218.318V214.376H1558.07V218.318H1556.31V215.791H1553.94V222.162H1552.19V215.791H1550.26V218.318H1548.49ZM1562.47 222.217C1561.68 222.217 1561.06 222.115 1560.6 221.912C1560.14 221.701 1559.81 221.385 1559.62 220.964C1559.42 220.543 1559.32 220.013 1559.32 219.374V214.376H1561.07V219.374C1561.07 219.926 1561.19 220.304 1561.45 220.507C1561.71 220.703 1562.15 220.801 1562.77 220.801H1564.87C1565.48 220.801 1565.92 220.703 1566.17 220.507C1566.44 220.304 1566.57 219.926 1566.57 219.374V214.376H1568.31V219.374C1568.31 220.013 1568.21 220.543 1568.01 220.964C1567.82 221.385 1567.49 221.701 1567.03 221.912C1566.58 222.115 1565.95 222.217 1565.16 222.217H1562.47ZM1569.83 222.162V214.376H1576.35C1577.16 214.376 1577.78 214.579 1578.23 214.986C1578.68 215.392 1578.9 216.009 1578.9 216.837C1578.9 217.541 1578.74 218.093 1578.41 218.492C1578.09 218.891 1577.62 219.142 1577.02 219.244L1578.82 222.162H1576.83L1575.17 219.298H1571.57V222.162H1569.83ZM1576.15 215.791H1571.57V217.871L1576.15 217.882C1576.47 217.882 1576.71 217.802 1576.88 217.643C1577.05 217.483 1577.14 217.214 1577.14 216.837C1577.14 216.452 1577.05 216.183 1576.88 216.031C1576.71 215.871 1576.47 215.791 1576.15 215.791ZM1580.21 222.162V214.376H1588.75V215.791H1581.95V217.512H1588.12V218.928H1581.95V220.746H1588.75V222.162H1580.21Z" fill="#141414"/>
<path d="M1784.59 180.389C1783.37 180.389 1782.2 180.871 1781.34 181.733L1768.05 195.022C1766.76 196.314 1765.01 197.038 1763.18 197.038H1753.4C1750.86 197.038 1748.8 194.982 1748.8 192.443V168.897H1760.29V186.126L1776.17 170.241C1777.03 169.379 1778.2 168.897 1779.42 168.897H1800.49V180.383H1784.59V180.389ZM1748.81 226.333H1760.29V209.104H1789.01V226.333H1800.49V216.748C1800.49 215.53 1800.01 214.359 1799.15 213.497L1784.61 198.962C1783.75 198.1 1782.58 197.618 1781.36 197.618H1768.89C1767.06 197.618 1765.31 198.341 1764.01 199.633L1750.15 213.497C1749.29 214.359 1748.81 215.53 1748.81 216.748V226.333Z" fill="#141414"/>
</svg>
