<svg width="101" height="149" viewBox="0 0 101 149" fill="none" xmlns="http://www.w3.org/2000/svg">
<rect width="99.9" height="99.9" transform="translate(0.550781)" fill="#FAF5EA"/>
<path d="M60.4466 32.7242C59.2291 32.7242 58.0575 33.2066 57.196 34.068L43.9068 47.3573C42.6146 48.6495 40.863 49.3731 39.031 49.3731H29.2506C26.7122 49.3731 24.6562 47.3171 24.6562 44.7787V21.2324H36.1422V38.4614L52.0274 22.5763C52.8888 21.7148 54.0604 21.2324 55.2779 21.2324H76.3489V32.7184H60.4466V32.7242ZM24.662 78.6681H36.148V61.4391H64.8629V78.6681H76.3489V69.083C76.3489 67.8655 75.8665 66.694 75.0051 65.8325L60.4696 51.297C59.6081 50.4355 58.4365 49.9531 57.219 49.9531H44.7452C42.919 49.9531 41.1674 50.6768 39.8694 51.9689L26.0059 65.8325C25.1444 66.694 24.662 67.8655 24.662 69.083V78.6681Z" fill="#141414"/>
<path d="M11.9051 119.692C11.5034 119.692 11.1169 119.851 10.8327 120.135L6.44849 124.519C6.0222 124.945 5.44433 125.184 4.83994 125.184H1.61337C0.775938 125.184 0.0976562 124.506 0.0976562 123.668V115.9H3.88694V121.584L9.12752 116.344C9.41171 116.06 9.79822 115.9 10.1999 115.9H17.1513V119.69H11.9051V119.692ZM0.0995506 134.849H3.88883V129.165H13.362V134.849H17.1513V131.687C17.1513 131.285 16.9922 130.898 16.708 130.614L11.9126 125.819C11.6284 125.535 11.2419 125.375 10.8403 125.375H6.72511C6.12262 125.375 5.54475 125.614 5.11656 126.041L0.542897 130.614C0.2587 130.898 0.0995506 131.285 0.0995506 131.687V134.849Z" fill="#FAF5EA"/>
<path d="M25.7435 116.345L29.5915 120.193C29.8757 120.477 30.0349 120.863 30.0349 121.265V134.848H26.2456V121.206C26.2456 120.369 25.5673 119.691 24.7299 119.691H19.6144V115.901H24.6712C25.0728 115.901 25.4593 116.06 25.7435 116.345ZM36.668 115.901H30.7946C30.3759 115.901 30.0368 116.24 30.0368 116.659V119.691H36.668V115.901Z" fill="#FAF5EA"/>
<path d="M52.8388 125.818L57.6341 130.613C57.9183 130.897 58.0775 131.284 58.0775 131.686V134.848H54.2882V130.68C54.2882 129.842 53.6099 129.164 52.7725 129.164H44.436C43.5986 129.164 42.9203 129.842 42.9203 130.68V134.848H39.1311V131.686C39.1311 131.284 39.2902 130.897 39.5744 130.613L44.3697 125.818C44.6539 125.534 45.0404 125.375 45.4421 125.375H51.7645C52.1662 125.375 52.5527 125.534 52.8369 125.818H52.8388ZM45.4459 115.901C45.0442 115.901 44.6577 116.06 44.3735 116.345L39.5782 121.14C39.294 121.424 39.1348 121.811 39.1348 122.212V126.322H42.9241V121.206C42.9241 120.369 43.6024 119.691 44.4398 119.691H52.7763C53.6137 119.691 54.292 120.369 54.292 121.206V126.322H58.0813V122.212C58.0813 121.811 57.9221 121.424 57.6379 121.14L52.8426 116.345C52.5584 116.06 52.1719 115.901 51.7702 115.901H45.4459Z" fill="#FAF5EA"/>
<path d="M74.2501 116.345L79.0455 121.14C79.3297 121.424 79.4888 121.811 79.4888 122.212V134.848H75.6995V121.206C75.6995 120.369 75.0212 119.691 74.1838 119.691H65.279L68.6249 116.345C68.9091 116.06 69.2956 115.901 69.6973 115.901H73.1778C73.5794 115.901 73.9659 116.06 74.2501 116.345ZM60.5443 115.901V134.848H64.3336V115.901H60.5443Z" fill="#FAF5EA"/>
<path d="M95.6596 125.818L100.455 130.613C100.739 130.897 100.898 131.284 100.898 131.686V134.848H97.109V130.68C97.109 129.842 96.4307 129.164 95.5933 129.164H87.2568C86.4194 129.164 85.7411 129.842 85.7411 130.68V134.848H81.9518V131.686C81.9518 131.284 82.111 130.897 82.3952 130.613L87.1905 125.818C87.4747 125.534 87.8612 125.375 88.2629 125.375H94.5853C94.987 125.375 95.3735 125.534 95.6577 125.818H95.6596ZM88.2667 115.901C87.865 115.901 87.4785 116.06 87.1943 116.345L82.399 121.14C82.1148 121.424 81.9556 121.811 81.9556 122.212V126.322H85.7449V121.206C85.7449 120.369 86.4232 119.691 87.2606 119.691H95.5971C96.4345 119.691 97.1128 120.369 97.1128 121.206V126.322H100.902V122.212C100.902 121.811 100.743 121.424 100.459 121.14L95.6634 116.345C95.3792 116.06 94.9927 115.901 94.591 115.901H88.2667Z" fill="#FAF5EA"/>
<path d="M0.771035 146.463V141.88H5.7961V142.713H1.79656V143.726H5.42434V144.559H1.79656V145.63H5.7961V146.463H0.771035ZM6.49829 146.463V141.88H7.35716L9.47871 143.367H9.51076L11.6323 141.88H12.4912V146.463H11.4657V143.162L10.0107 144.136V146.463H8.98518V144.136L7.52381 143.162V146.463H6.49829ZM13.3898 146.463V141.893L17.2483 141.88C17.7568 141.88 18.1328 141.987 18.3764 142.201C18.6242 142.41 18.7481 142.726 18.7481 143.149C18.7481 143.572 18.6071 143.882 18.3251 144.079C18.5131 144.181 18.652 144.318 18.7417 144.489C18.8315 144.655 18.8763 144.871 18.8763 145.136C18.8763 145.568 18.7524 145.897 18.5046 146.123C18.261 146.345 17.885 146.456 17.3765 146.456L13.3898 146.463ZM17.1265 142.701H14.4153V143.726H17.1265C17.5154 143.726 17.7098 143.551 17.7098 143.2C17.7098 142.867 17.5154 142.701 17.1265 142.701ZM17.2547 144.546H14.4153V145.636H17.2547C17.6436 145.636 17.838 145.452 17.838 145.085C17.838 144.726 17.6436 144.546 17.2547 144.546ZM19.5802 146.463V141.88H23.4195C23.8938 141.88 24.2613 142 24.522 142.239C24.7869 142.478 24.9193 142.842 24.9193 143.329C24.9193 143.743 24.8232 144.068 24.6309 144.303C24.4386 144.538 24.1652 144.685 23.8105 144.745L24.8681 146.463H23.7015L22.7209 144.777H20.6057V146.463H19.5802ZM23.2977 142.713H20.6057V143.938L23.2977 143.944C23.4857 143.944 23.6289 143.897 23.7272 143.803C23.8297 143.709 23.881 143.551 23.881 143.329C23.881 143.102 23.8297 142.944 23.7272 142.854C23.6289 142.76 23.4857 142.713 23.2977 142.713ZM25.3047 146.463L27.3686 141.88H28.9517L31.0156 146.463H29.9003L29.4645 145.495H26.8558L26.42 146.463H25.3047ZM27.2276 144.662H29.0927L28.2018 142.681H28.1185L27.2276 144.662ZM33.7627 146.495C32.9167 146.495 32.2693 146.301 31.8206 145.912C31.372 145.519 31.1476 144.937 31.1476 144.168C31.1476 143.403 31.372 142.824 31.8206 142.431C32.2693 142.038 32.9167 141.844 33.7627 141.848L36.0701 141.861V142.681H33.8332C33.2777 142.681 32.8654 142.799 32.5962 143.034C32.327 143.269 32.1924 143.647 32.1924 144.168C32.1924 144.69 32.327 145.07 32.5962 145.309C32.8654 145.544 33.2777 145.662 33.8332 145.662H36.1342V146.495H33.7627ZM36.7745 146.463V141.88H41.7996V142.713H37.8V143.726H41.4278V144.559H37.8V145.63H41.7996V146.463H36.7745ZM44.5823 144.2V141.88H50.2227V144.2H49.1844V142.713H47.7871V146.463H46.7616V142.713H45.6207V144.2H44.5823ZM50.9581 146.463V141.88H51.9836V143.758H55.214V141.88H56.2395V146.463H55.214V144.591H51.9836V146.463H50.9581ZM57.136 146.463V141.88H62.161V142.713H58.1615V143.726H61.7893V144.559H58.1615V145.63H62.161V146.463H57.136ZM65.1041 146.463V141.88H70.0009V142.713H66.1296V143.982H69.501V144.816H66.1296V146.463H65.1041ZM72.5585 146.495C72.0927 146.495 71.7252 146.435 71.456 146.315C71.1868 146.192 70.9946 146.006 70.8792 145.758C70.7638 145.51 70.7061 145.198 70.7061 144.822V141.88H71.7317V144.822C71.7317 145.147 71.8064 145.369 71.956 145.489C72.1098 145.604 72.3683 145.662 72.7315 145.662H73.9686C74.3318 145.662 74.5882 145.604 74.7377 145.489C74.8915 145.369 74.9685 145.147 74.9685 144.822V141.88H75.994V144.822C75.994 145.198 75.9363 145.51 75.8209 145.758C75.7056 146.006 75.5133 146.192 75.2441 146.315C74.9749 146.435 74.6074 146.495 74.1416 146.495H72.5585ZM76.7301 144.2V141.88H82.3705V144.2H81.3321V142.713H79.9348V146.463H78.9093V142.713H77.7684V144.2H76.7301ZM84.9581 146.495C84.4924 146.495 84.1249 146.435 83.8557 146.315C83.5865 146.192 83.3942 146.006 83.2788 145.758C83.1635 145.51 83.1058 145.198 83.1058 144.822V141.88H84.1313V144.822C84.1313 145.147 84.2061 145.369 84.3556 145.489C84.5095 145.604 84.768 145.662 85.1312 145.662H86.3682C86.7314 145.662 86.9878 145.604 87.1374 145.489C87.2912 145.369 87.3681 145.147 87.3681 144.822V141.88H88.3936V144.822C88.3936 145.198 88.336 145.51 88.2206 145.758C88.1052 146.006 87.9129 146.192 87.6437 146.315C87.3745 146.435 87.007 146.495 86.5413 146.495H84.9581ZM89.29 146.463V141.88H93.1293C93.6036 141.88 93.9711 142 94.2317 142.239C94.4966 142.478 94.6291 142.842 94.6291 143.329C94.6291 143.743 94.533 144.068 94.3407 144.303C94.1484 144.538 93.8749 144.685 93.5203 144.745L94.5778 146.463H93.4113L92.4306 144.777H90.3155V146.463H89.29ZM93.0075 142.713H90.3155V143.938L93.0075 143.944C93.1955 143.944 93.3387 143.897 93.4369 143.803C93.5395 143.709 93.5908 143.551 93.5908 143.329C93.5908 143.102 93.5395 142.944 93.4369 142.854C93.3387 142.76 93.1955 142.713 93.0075 142.713ZM95.399 146.463V141.88H100.424V142.713H96.4246V143.726H100.052V144.559H96.4246V145.63H100.424V146.463H95.399Z" fill="#FAF5EA"/>
</svg>
