<svg width="101" height="149" viewBox="0 0 101 149" fill="none" xmlns="http://www.w3.org/2000/svg">
<rect width="99.9" height="99.9" transform="translate(0.550781)" fill="#141414"/>
<path d="M60.4466 32.7242C59.2291 32.7242 58.0575 33.2066 57.196 34.068L43.9068 47.3573C42.6146 48.6495 40.863 49.3731 39.031 49.3731H29.2506C26.7122 49.3731 24.6562 47.3171 24.6562 44.7787V21.2324H36.1422V38.4614L52.0274 22.5763C52.8888 21.7148 54.0604 21.2324 55.2779 21.2324H76.3489V32.7184H60.4466V32.7242ZM24.662 78.6681H36.148V61.4391H64.8629V78.6681H76.3489V69.083C76.3489 67.8655 75.8665 66.694 75.0051 65.8325L60.4696 51.297C59.6081 50.4355 58.4365 49.9531 57.219 49.9531H44.7452C42.919 49.9531 41.1674 50.6768 39.8694 51.9689L26.0059 65.8325C25.1444 66.694 24.662 67.8655 24.662 69.083V78.6681Z" fill="#FAF5EA"/>
<path d="M11.8113 119.693C11.4095 119.693 11.0228 119.852 10.7385 120.136L6.35291 124.522C5.92647 124.948 5.34842 125.187 4.74383 125.187H1.51621C0.678503 125.187 0 124.509 0 123.671V115.9H3.79052V121.586L9.0328 116.344C9.31709 116.06 9.70372 115.9 10.1055 115.9H17.0592V119.691H11.8113V119.693ZM0.00189494 134.855H3.79241V129.169H13.2687V134.855H17.0592V131.692C17.0592 131.29 16.9 130.903 16.6157 130.619L11.8188 125.822C11.5345 125.538 11.1479 125.379 10.7461 125.379H6.62962C6.02692 125.379 5.44887 125.617 5.02054 126.044L0.445386 130.619C0.161097 130.903 0.00189494 131.29 0.00189494 131.692V134.855Z" fill="#141414"/>
<path d="M25.6542 116.345L29.5035 120.194C29.7878 120.478 29.947 120.865 29.947 121.267V134.854H26.1565V121.208C26.1565 120.37 25.478 119.692 24.6403 119.692H19.5231V115.901H24.5815C24.9833 115.901 25.3699 116.061 25.6542 116.345ZM36.5823 115.901H30.707C30.2881 115.901 29.9489 116.241 29.9489 116.659V119.692H36.5823V115.901Z" fill="#141414"/>
<path d="M52.7583 125.821L57.5552 130.618C57.8395 130.902 57.9987 131.289 57.9987 131.691V134.854H54.2082V130.684C54.2082 129.847 53.5297 129.168 52.692 129.168H44.3528C43.5151 129.168 42.8366 129.847 42.8366 130.684V134.854H39.0461V131.691C39.0461 131.289 39.2053 130.902 39.4896 130.618L44.2865 125.821C44.5708 125.537 44.9574 125.378 45.3592 125.378H51.6837C52.0855 125.378 52.4721 125.537 52.7564 125.821H52.7583ZM45.363 115.901C44.9612 115.901 44.5746 116.061 44.2903 116.345L39.4934 121.142C39.2091 121.426 39.0499 121.813 39.0499 122.214V126.325H42.8404V121.208C42.8404 120.37 43.5189 119.692 44.3566 119.692H52.6958C53.5335 119.692 54.212 120.37 54.212 121.208V126.325H58.0025V122.214C58.0025 121.813 57.8433 121.426 57.559 121.142L52.7621 116.345C52.4778 116.061 52.0912 115.901 51.6894 115.901H45.363Z" fill="#141414"/>
<path d="M74.1766 116.345L78.9735 121.142C79.2578 121.426 79.417 121.813 79.417 122.214V134.854H75.6265V121.208C75.6265 120.37 74.948 119.692 74.1103 119.692H65.2026L68.5496 116.345C68.8339 116.061 69.2205 115.901 69.6223 115.901H73.1039C73.5057 115.901 73.8924 116.061 74.1766 116.345ZM60.4663 115.901V134.854H64.2569V115.901H60.4663Z" fill="#141414"/>
<path d="M95.5931 125.821L100.39 130.618C100.674 130.902 100.833 131.289 100.833 131.691V134.854H97.0429V130.684C97.0429 129.847 96.3644 129.168 95.5267 129.168H87.1876C86.3499 129.168 85.6714 129.847 85.6714 130.684V134.854H81.8809V131.691C81.8809 131.289 82.0401 130.902 82.3244 130.618L87.1213 125.821C87.4056 125.537 87.7922 125.378 88.194 125.378H94.5185C94.9202 125.378 95.3069 125.537 95.5912 125.821H95.5931ZM88.1978 115.901C87.796 115.901 87.4093 116.061 87.125 116.345L82.3281 121.142C82.0439 121.426 81.8847 121.813 81.8847 122.214V126.325H85.6752V121.208C85.6752 120.37 86.3537 119.692 87.1914 119.692H95.5305C96.3682 119.692 97.0467 120.37 97.0467 121.208V126.325H100.837V122.214C100.837 121.813 100.678 121.426 100.394 121.142L95.5969 116.345C95.3126 116.061 94.9259 115.901 94.5241 115.901H88.1978Z" fill="#141414"/>
<path d="M0.754824 146.473V141.888H5.78152V142.722H1.78068V143.735H5.40965V144.568H1.78068V145.639H5.78152V146.473H0.754824ZM6.48394 146.473V141.888H7.3431L9.46534 143.376H9.4974L11.6196 141.888H12.4788V146.473H11.4529V143.171L9.99751 144.145V146.473H8.97165V144.145L7.5098 143.171V146.473H6.48394ZM13.3777 146.473V141.901L17.2375 141.888C17.7461 141.888 18.1223 141.995 18.3659 142.209C18.6138 142.418 18.7378 142.735 18.7378 143.158C18.7378 143.581 18.5967 143.891 18.3146 144.088C18.5027 144.19 18.6416 144.327 18.7314 144.498C18.8211 144.665 18.866 144.88 18.866 145.145C18.866 145.577 18.7421 145.906 18.4941 146.133C18.2505 146.355 17.8743 146.466 17.3657 146.466L13.3777 146.473ZM17.1156 142.709H14.4035V143.735H17.1156C17.5046 143.735 17.6991 143.56 17.6991 143.209C17.6991 142.876 17.5046 142.709 17.1156 142.709ZM17.2439 144.556H14.4035V145.646H17.2439C17.6328 145.646 17.8273 145.462 17.8273 145.094C17.8273 144.735 17.6328 144.556 17.2439 144.556ZM19.5701 146.473V141.888H23.4107C23.8851 141.888 24.2527 142.008 24.5135 142.247C24.7785 142.487 24.911 142.85 24.911 143.337C24.911 143.752 24.8148 144.077 24.6225 144.312C24.4301 144.547 24.1566 144.695 23.8018 144.754L24.8597 146.473H23.6928L22.7118 144.786H20.596V146.473H19.5701ZM23.2889 142.722H20.596V143.946L23.2889 143.953C23.4769 143.953 23.6201 143.906 23.7184 143.812C23.821 143.718 23.8723 143.56 23.8723 143.337C23.8723 143.111 23.821 142.953 23.7184 142.863C23.6201 142.769 23.4769 142.722 23.2889 142.722ZM25.2965 146.473L27.361 141.888H28.9447L31.0092 146.473H29.8936L29.4576 145.505H26.8481L26.4121 146.473H25.2965ZM27.22 144.671H29.0858L28.1945 142.69H28.1112L27.22 144.671ZM33.7573 146.505C32.9109 146.505 32.2634 146.31 31.8145 145.921C31.3657 145.528 31.1413 144.947 31.1413 144.177C31.1413 143.412 31.3657 142.833 31.8145 142.44C32.2634 142.047 32.9109 141.852 33.7573 141.856L36.0654 141.869V142.69H33.8278C33.2721 142.69 32.8596 142.807 32.5904 143.042C32.3211 143.278 32.1864 143.656 32.1864 144.177C32.1864 144.699 32.3211 145.079 32.5904 145.319C32.8596 145.554 33.2721 145.671 33.8278 145.671H36.1296V146.505H33.7573ZM36.77 146.473V141.888H41.7967V142.722H37.7959V143.735H41.4248V144.568H37.7959V145.639H41.7967V146.473H36.77ZM44.5804 144.209V141.888H50.2226V144.209H49.1839V142.722H47.7862V146.473H46.7604V142.722H45.6191V144.209H44.5804ZM50.9582 146.473V141.888H51.9841V143.767H55.2155V141.888H56.2414V146.473H55.2155V144.6H51.9841V146.473H50.9582ZM57.1381 146.473V141.888H62.1648V142.722H58.164V143.735H61.793V144.568H58.164V145.639H62.1648V146.473H57.1381ZM65.1088 146.473V141.888H70.0073V142.722H66.1347V143.991H69.5072V144.825H66.1347V146.473H65.1088ZM72.5657 146.505C72.0998 146.505 71.7322 146.445 71.4629 146.325C71.1936 146.201 71.0012 146.015 70.8858 145.767C70.7704 145.519 70.7127 145.207 70.7127 144.831V141.888H71.7386V144.831C71.7386 145.156 71.8134 145.378 71.963 145.498C72.1169 145.614 72.3755 145.671 72.7388 145.671H73.9762C74.3395 145.671 74.596 145.614 74.7456 145.498C74.8995 145.378 74.9764 145.156 74.9764 144.831V141.888H76.0023V144.831C76.0023 145.207 75.9446 145.519 75.8292 145.767C75.7138 146.015 75.5214 146.201 75.2521 146.325C74.9828 146.445 74.6152 146.505 74.1493 146.505H72.5657ZM76.7386 144.209V141.888H82.3808V144.209H81.3422V142.722H79.9444V146.473H78.9186V142.722H77.7773V144.209H76.7386ZM84.9694 146.505C84.5035 146.505 84.1359 146.445 83.8666 146.325C83.5973 146.201 83.4049 146.015 83.2895 145.767C83.1741 145.519 83.1164 145.207 83.1164 144.831V141.888H84.1423V144.831C84.1423 145.156 84.2171 145.378 84.3667 145.498C84.5206 145.614 84.7792 145.671 85.1425 145.671H86.3799C86.7432 145.671 86.9997 145.614 87.1493 145.498C87.3032 145.378 87.3801 145.156 87.3801 144.831V141.888H88.406V144.831C88.406 145.207 88.3483 145.519 88.2329 145.767C88.1175 146.015 87.9251 146.201 87.6558 146.325C87.3865 146.445 87.0189 146.505 86.553 146.505H84.9694ZM89.3026 146.473V141.888H93.1432C93.6176 141.888 93.9852 142.008 94.246 142.247C94.511 142.487 94.6435 142.85 94.6435 143.337C94.6435 143.752 94.5473 144.077 94.355 144.312C94.1626 144.547 93.8891 144.695 93.5343 144.754L94.5922 146.473H93.4253L92.4443 144.786H90.3285V146.473H89.3026ZM93.0214 142.722H90.3285V143.946L93.0214 143.953C93.2094 143.953 93.3526 143.906 93.4509 143.812C93.5535 143.718 93.6048 143.56 93.6048 143.337C93.6048 143.111 93.5535 142.953 93.4509 142.863C93.3526 142.769 93.2094 142.722 93.0214 142.722ZM95.4137 146.473V141.888H100.44V142.722H96.4395V143.735H100.069V144.568H96.4395V145.639H100.44V146.473H95.4137Z" fill="#141414"/>
</svg>
