<svg width="288" height="93" viewBox="0 0 288 93" fill="none" xmlns="http://www.w3.org/2000/svg">
<rect width="92.4736" height="92.4736" rx="46.112" fill="#FAF5EA"/>
<path d="M54.2122 32.4196C53.2355 32.4196 52.2957 32.8065 51.6047 33.4976L40.9445 44.1578C39.908 45.1943 38.5029 45.7748 37.0333 45.7748H29.1879C27.1517 45.7748 25.5024 44.1255 25.5024 42.0893V23.2013H34.7161V37.0218L47.4586 24.2793C48.1496 23.5883 49.0894 23.2013 50.066 23.2013H66.9685V32.415H54.2122V32.4196ZM25.507 69.2742H34.7207V55.4537H57.7548V69.2742H66.9685V61.5854C66.9685 60.6087 66.5815 59.669 65.8905 58.9779L54.2306 47.318C53.5396 46.627 52.5998 46.24 51.6231 46.24H41.6171C40.1521 46.24 38.7471 46.8205 37.7059 47.857L26.585 58.9779C25.894 59.669 25.507 60.6087 25.507 61.5854V69.2742Z" fill="#141414"/>
<path d="M134.85 32.4455C134.159 32.4455 133.494 32.7194 133.005 33.2085L125.461 40.753C124.727 41.4866 123.733 41.8974 122.693 41.8974H117.14C115.699 41.8974 114.532 40.7302 114.532 39.2891V25.9215H121.053V35.7027L130.071 26.6845C130.56 26.1954 131.225 25.9215 131.916 25.9215H143.878V32.4423H134.85V32.4455ZM114.535 58.5286H121.056V48.7474H137.358V58.5286H143.878V53.087C143.878 52.3958 143.605 51.7307 143.116 51.2416L134.864 42.9896C134.374 42.5006 133.709 42.2267 133.018 42.2267H125.937C124.9 42.2267 123.905 42.6375 123.169 43.3711L115.298 51.2416C114.809 51.7307 114.535 52.3958 114.535 53.087V58.5286Z" fill="#141414"/>
<path d="M158.664 26.6861L165.286 33.3079C165.775 33.797 166.049 34.4621 166.049 35.1533V58.527H159.528V35.0522C159.528 33.6111 158.361 32.4439 156.92 32.4439H148.117V25.9232H156.819C157.51 25.9232 158.175 26.197 158.664 26.6861ZM177.464 25.9232H167.356C166.636 25.9232 166.052 26.5068 166.052 27.2273V32.4439H177.464V25.9232Z" fill="#141414"/>
<path d="M205.291 42.988L213.543 51.24C214.032 51.7291 214.306 52.3942 214.306 53.0854V58.527H207.785V51.3541C207.785 49.913 206.618 48.7458 205.177 48.7458H190.831C189.39 48.7458 188.223 49.913 188.223 51.3541V58.527H181.702V53.0854C181.702 52.3942 181.976 51.7291 182.465 51.24L190.717 42.988C191.206 42.4989 191.871 42.2251 192.562 42.2251H203.442C204.134 42.2251 204.799 42.4989 205.288 42.988H205.291ZM192.569 25.9232C191.878 25.9232 191.213 26.197 190.724 26.6861L182.472 34.9381C181.983 35.4272 181.709 36.0923 181.709 36.7835V43.8552H188.229V35.0522C188.229 33.6111 189.397 32.4439 190.838 32.4439H205.183C206.624 32.4439 207.792 33.6111 207.792 35.0522V43.8552H214.312V36.7835C214.312 36.0923 214.039 35.4272 213.55 34.9381L205.297 26.6861C204.808 26.197 204.143 25.9232 203.452 25.9232H192.569Z" fill="#141414"/>
<path d="M242.137 26.6861L250.389 34.9381C250.878 35.4272 251.151 36.0923 251.151 36.7835V58.527H244.631V35.0522C244.631 33.6111 243.463 32.4439 242.022 32.4439H226.699L232.456 26.6861C232.946 26.197 233.611 25.9232 234.302 25.9232H240.291C240.982 25.9232 241.647 26.197 242.137 26.6861ZM218.551 25.9232V58.527H225.072V25.9232H218.551Z" fill="#141414"/>
<path d="M278.979 42.988L287.231 51.24C287.72 51.7291 287.994 52.3942 287.994 53.0854V58.527H281.473V51.3541C281.473 49.913 280.306 48.7458 278.865 48.7458H264.519C263.078 48.7458 261.911 49.913 261.911 51.3541V58.527H255.39V53.0854C255.39 52.3942 255.664 51.7291 256.153 51.24L264.405 42.988C264.894 42.4989 265.559 42.2251 266.25 42.2251H277.13C277.821 42.2251 278.486 42.4989 278.976 42.988H278.979ZM266.257 25.9232C265.566 25.9232 264.9 26.197 264.411 26.6861L256.159 34.9381C255.67 35.4272 255.396 36.0923 255.396 36.7835V43.8552H261.917V35.0522C261.917 33.6111 263.084 32.4439 264.526 32.4439H278.871C280.312 32.4439 281.48 33.6111 281.48 35.0522V43.8552H288V36.7835C288 36.0923 287.726 35.4272 287.237 34.9381L278.985 26.6861C278.496 26.197 277.831 25.9232 277.14 25.9232H266.257Z" fill="#141414"/>
</svg>
